<svg width="18" height="18" viewBox="0 0 18 18" fill="none" xmlns="http://www.w3.org/2000/svg">
<path d="M9 15.9375C12.8315 15.9375 15.9375 12.8315 15.9375 9C15.9375 5.16852 12.8315 2.0625 9 2.0625C5.16852 2.0625 2.0625 5.16852 2.0625 9C2.0625 12.8315 5.16852 15.9375 9 15.9375Z" stroke="white" stroke-miterlimit="5"/>
<path d="M11.8434 7.96375L9.21839 6.0835C9.08752 5.98975 8.91239 5.98975 8.78152 6.0835L6.15652 7.96375C6.02339 8.059 5.96752 8.23 6.01889 8.386L7.02164 11.4276C7.07227 11.581 7.21589 11.6852 7.37789 11.6852H10.6224C10.7844 11.6852 10.9276 11.5814 10.9786 11.4276L11.9814 8.386C12.032 8.23 11.9765 8.059 11.8434 7.96375Z" fill="white"/>
<path d="M6.61089 12.6043C6.55839 12.4535 6.41627 12.3523 6.25652 12.3523C6.25577 12.3523 6.25502 12.3523 6.25427 12.3523L3.16464 12.3714C3.02777 12.3722 2.90252 12.4475 2.83727 12.5675C2.77202 12.6879 2.77764 12.8342 2.85189 12.9493C3.85839 14.513 5.40339 15.6253 7.20227 16.0813C7.23302 16.0892 7.26377 16.0925 7.29452 16.0925C7.39802 16.0925 7.49889 16.0494 7.57089 15.971C7.66427 15.8694 7.69427 15.725 7.64889 15.5945L6.61089 12.6043Z" fill="white"/>
<path d="M14.8356 12.3714L11.7077 12.3523C11.707 12.3523 11.7062 12.3523 11.7055 12.3523C11.5457 12.3523 11.4036 12.4535 11.3511 12.6043L10.3097 15.605C10.2647 15.7352 10.2944 15.8788 10.387 15.9808C10.459 16.0595 10.5599 16.103 10.6641 16.103C10.6941 16.103 10.7241 16.0993 10.7537 16.0922C12.5721 15.644 14.1325 14.528 15.1484 12.9493C15.2226 12.8342 15.2279 12.6883 15.163 12.5675C15.0977 12.4475 14.9725 12.3722 14.8356 12.3714Z" fill="white"/>
<path d="M14.7451 4.48582C14.6596 4.37744 14.522 4.32644 14.3855 4.34819C14.2494 4.37219 14.1376 4.46894 14.0945 4.60019L13.1439 7.48394C13.0925 7.63994 13.1484 7.81094 13.2819 7.90657L15.7025 9.64019C15.7674 9.68632 15.8439 9.71032 15.9208 9.71032C15.9763 9.71032 16.0321 9.69794 16.0843 9.67282C16.208 9.61282 16.289 9.49019 16.2954 9.35294L16.3021 9.24307C16.307 9.16282 16.3123 9.08219 16.3123 9.00007C16.3123 7.35007 15.7704 5.78894 14.7451 4.48582Z" fill="white"/>
<path d="M6.11992 2.89832L8.78204 4.80482C8.84729 4.8517 8.92379 4.87495 9.00029 4.87495C9.07679 4.87495 9.15329 4.85132 9.21854 4.80482L11.8807 2.89832C11.9913 2.81882 12.0505 2.68607 12.0352 2.5507C12.0194 2.4157 11.9324 2.29907 11.8064 2.24657C10.0199 1.50407 7.98104 1.50407 6.19454 2.24657C6.06892 2.29907 5.98154 2.41532 5.96579 2.5507C5.95042 2.68607 6.00929 2.8192 6.11992 2.89832Z" fill="white"/>
<path d="M4.85625 7.48394L3.90562 4.60019C3.8625 4.46894 3.75037 4.37257 3.61462 4.34819C3.4785 4.32644 3.3405 4.37744 3.255 4.48582C2.22938 5.78894 1.6875 7.35007 1.6875 9.00007C1.6875 9.08219 1.69275 9.16282 1.698 9.24307L1.70475 9.35294C1.7115 9.48982 1.79213 9.61244 1.91588 9.67282C1.96763 9.69757 2.0235 9.71032 2.07938 9.71032C2.15625 9.71032 2.23275 9.68669 2.29762 9.64019L4.71825 7.90657C4.85175 7.81094 4.90725 7.63994 4.85625 7.48394Z" fill="white"/>
<path d="M6 13.1033L7.45087 11.25" stroke="white" stroke-width="0.666667" stroke-miterlimit="10"/>
<path d="M11.7634 12.7501L10.5 11.1365" stroke="white" stroke-width="0.666667" stroke-miterlimit="10"/>
<path d="M9 4.5V6.375" stroke="white" stroke-width="0.666667" stroke-miterlimit="10"/>
<path d="M4.125 7.5L6.375 8.25" stroke="white" stroke-width="0.666667" stroke-miterlimit="10"/>
<path d="M13.5 7.62488L11.625 8.25" stroke="white" stroke-width="0.666667" stroke-miterlimit="10"/>
</svg>
