<svg width="40" height="40" viewBox="0 0 40 40" fill="none" xmlns="http://www.w3.org/2000/svg">
<g clip-path="url(#clip0_527_1046)">
<path d="M14.8 35.2002H2V3.2002H27.6V24.0002V35.2002H22.8" stroke="#0B4C8E" stroke-width="1.5" stroke-miterlimit="10" stroke-linejoin="round"/>
<path d="M22.8008 30.6998V39.1998L18.8008 35.9998L14.8008 39.1998V30.7126M6.80078 8.7998H21.2008M6.80078 13.5998H22.8008M6.80078 23.1998H11.6008M6.80078 18.3998H18.8008" stroke="#0B4C8E" stroke-width="1.5" stroke-miterlimit="10" stroke-linejoin="round"/>
<path d="M19.778 23.697L20.0324 24.0434C20.1268 24.1722 20.2884 24.2314 20.4428 24.1946L20.858 24.0946C21.6516 23.9034 22.4028 24.5394 22.3548 25.3618L22.3292 25.7962C22.3196 25.9562 22.4052 26.1058 22.5476 26.1778L22.9284 26.3714C23.6588 26.7418 23.8292 27.7178 23.2684 28.3178L22.9748 28.6322C22.866 28.7482 22.8364 28.9194 22.8988 29.0658L23.0684 29.4626C23.3924 30.2202 22.9012 31.0786 22.0892 31.1738L21.6676 31.2234C21.51 31.2418 21.3788 31.353 21.3332 31.5066L21.2108 31.9226C20.978 32.7122 20.0564 33.0506 19.3756 32.597L19.0196 32.3594C18.8868 32.2714 18.7148 32.2714 18.5828 32.3594L18.2276 32.5962C17.546 33.0506 16.6236 32.7114 16.3908 31.921L16.2684 31.5066C16.2228 31.353 16.0916 31.2418 15.934 31.2234L15.5124 31.1738C14.7004 31.0786 14.21 30.2202 14.5332 29.4626L14.7028 29.0658C14.7652 28.9186 14.7356 28.7482 14.6268 28.6322L14.3324 28.317C13.7724 27.717 13.9428 26.7418 14.6724 26.3722L15.054 26.1786C15.1956 26.1066 15.2812 25.957 15.2724 25.797L15.2468 25.365C15.1988 24.5418 15.9508 23.9042 16.7452 24.0954L17.158 24.1946C17.3124 24.2314 17.474 24.1722 17.5684 24.0434L17.8228 23.697C18.3108 23.0346 19.2916 23.0346 19.778 23.697Z" stroke="#0B4C8E" stroke-width="1.5" stroke-miterlimit="10" stroke-linejoin="round"/>
</g>
<defs>
<clipPath id="clip0_527_1046">
<rect width="40" height="40" fill="white"/>
</clipPath>
</defs>
</svg>
