<svg width="40" height="40" viewBox="0 0 40 40" fill="none" xmlns="http://www.w3.org/2000/svg">
<path d="M20.0201 5.6184V12.8088M36.7385 14.5616C33.7353 5.3176 23.8057 0.257599 14.5617 3.2616C5.31766 6.2656 0.258462 16.1952 3.26166 25.4384C6.26486 34.6816 16.1953 39.7416 25.4393 36.7384C34.6825 33.7352 39.7417 23.8048 36.7385 14.5616Z" stroke="#0B4C8E" stroke-width="1.5" stroke-miterlimit="10" stroke-linecap="round" stroke-linejoin="round"/>
<path d="M20.0001 11.9999L12.4297 17.4999L15.3209 26.3999H24.6793L27.5705 17.4999L20.0001 11.9999ZM14.8289 3.17354L20.0001 6.39994L25.1713 3.17354L20.0737 2.16394L14.8289 3.17354Z" fill="#0B4C8E"/>
<path d="M6.57837 15.62L12.9304 17.6648" stroke="#0B4C8E" stroke-width="1.5" stroke-miterlimit="10" stroke-linecap="round" stroke-linejoin="round"/>
<path d="M2.39917 19.7184L7.06557 15.7976L5.59517 9.88245L3.21277 14.1744L2.39917 19.7184Z" fill="#0B4C8E"/>
<path d="M11.6697 31.432L15.8041 25.7384" stroke="#0B4C8E" stroke-width="1.5" stroke-miterlimit="10" stroke-linecap="round" stroke-linejoin="round"/>
<path d="M14.2929 36.652L12.0065 31.0024L5.92651 30.5736L9.24891 34.1672L14.2929 36.652Z" fill="#0B4C8E"/>
<path d="M28.5465 31.7968L24.0913 25.5784" stroke="#0B4C8E" stroke-width="1.5" stroke-miterlimit="10" stroke-linecap="round" stroke-linejoin="round"/>
<path d="M34.0737 30.5736L27.9937 31.0024L25.7073 36.652L30.0273 34.2552L34.0737 30.5736Z" fill="#0B4C8E"/>
<path d="M34.0521 15.4552L26.7913 17.7544" stroke="#0B4C8E" stroke-width="1.5" stroke-miterlimit="10" stroke-linecap="round" stroke-linejoin="round"/>
<path d="M34.4047 9.88245L32.9343 15.7976L37.6007 19.7184L36.7767 14.536L34.4047 9.88245Z" fill="#0B4C8E"/>
</svg>
