<svg width="104" height="132" viewBox="0 0 104 132" fill="none" xmlns="http://www.w3.org/2000/svg">
<path d="M103 0.124752V33.2066L8.1875 31.4646V0L103 0.124752Z" fill="white"/>
<mask id="path-2-outside-1_501_984" maskUnits="userSpaceOnUse" x="0" y="18.4277" width="104" height="114" fill="black">
<rect fill="white" y="18.4277" width="104" height="114"/>
<path fill-rule="evenodd" clip-rule="evenodd" d="M18.9116 99.454C18.0159 99.6424 17.1027 99.738 16.1867 99.738C8.90488 99.738 3 93.8332 3 86.5513C3 81.2407 6.1887 76.4693 11.0152 74.4169V22.8586L15.5548 22.3542C20.732 21.7773 26.0369 22.0469 31.1504 23.018C36.8784 24.1051 42.5572 26.1111 47.5838 29.0997C47.8794 28.9229 48.1751 28.7548 48.4766 28.5896C48.5201 26.4212 49.0071 24.1167 50.8623 22.7658C53.6742 20.5453 57.002 21.1454 58.9123 24.1428C60.4052 24.5167 61.7676 25.2182 62.8692 26.2966C63.5185 26.372 64.1679 26.4763 64.8114 26.5952L65.1303 26.6531L65.4317 26.772C68.1044 27.8214 70.8235 28.8041 73.5745 29.6273C75.3109 30.1462 80.0302 31.471 81.7637 30.9144C86.8917 29.0852 92.4603 28.2591 97.7651 29.8679L100.18 30.6013V83.9656L100.162 84.1395C100.136 84.4004 100.102 84.6642 100.061 84.9222C100.049 84.986 100.041 85.0469 100.032 85.1106C99.9885 85.3628 99.9421 85.6121 99.8928 85.8614V85.8643C99.8378 86.1252 99.774 86.3861 99.7073 86.647C99.6899 86.7079 99.6754 86.7717 99.658 86.8354C99.5914 87.0789 99.5247 87.3195 99.4493 87.5601L99.4406 87.5862C99.3624 87.8413 99.2754 88.0935 99.1855 88.3457C99.1652 88.4066 99.142 88.4704 99.1189 88.5312C99.0319 88.7689 98.9391 89.0066 98.8464 89.2443L98.8435 89.253C98.742 89.511 98.629 89.769 98.5159 90.0241C98.4898 90.085 98.4608 90.143 98.4347 90.2038C98.3275 90.4416 98.2173 90.6764 98.1043 90.9112L98.0985 90.9199C97.9738 91.1807 97.8405 91.4358 97.7071 91.6909L97.626 91.8446C97.5013 92.0794 97.3709 92.3113 97.2433 92.5432L97.2317 92.5635C97.0897 92.8186 96.9418 93.065 96.7911 93.3143C96.7563 93.3722 96.7215 93.4302 96.6839 93.4882C96.5447 93.7172 96.4027 93.9433 96.2577 94.1694L96.2461 94.1897C96.0867 94.4419 95.9215 94.6912 95.7533 94.9376L95.649 95.0941C95.4924 95.3232 95.3359 95.5493 95.1765 95.7754L95.162 95.7986C94.9881 96.0479 94.8054 96.2943 94.6228 96.5378L94.5068 96.6943C94.3416 96.9175 94.1735 97.1349 94.0053 97.3523L93.9706 97.3987C93.785 97.6422 93.5937 97.8799 93.4024 98.1176L93.2719 98.2799C93.098 98.4974 92.9212 98.709 92.7444 98.9235L92.7009 98.9757C92.5038 99.2134 92.3008 99.4511 92.0979 99.683L91.953 99.8511C91.7733 100.06 91.5906 100.266 91.408 100.471L91.3442 100.544C91.1384 100.776 90.9297 101.005 90.721 101.234L90.5558 101.414C90.376 101.611 90.1905 101.808 90.0079 102.002L89.9151 102.101C89.7035 102.327 89.4919 102.547 89.2745 102.767L89.0832 102.964C88.9034 103.15 88.7179 103.335 88.5353 103.518L88.4251 103.631C88.2106 103.849 87.9932 104.06 87.7758 104.275C87.7004 104.347 87.628 104.42 87.5526 104.495C87.3729 104.672 87.1931 104.846 87.0105 105.02C86.9612 105.066 86.9148 105.112 86.8656 105.159C86.6511 105.362 86.4365 105.565 86.222 105.768C86.1351 105.849 86.0481 105.93 85.9611 106.011C85.7988 106.165 85.6336 106.315 85.4683 106.469C85.3843 106.547 85.3002 106.626 85.2161 106.701C85.019 106.881 84.819 107.063 84.619 107.243C84.5233 107.33 84.4277 107.414 84.3349 107.498C84.1755 107.64 84.0189 107.782 83.8595 107.924C83.758 108.014 83.6566 108.101 83.558 108.191C83.3696 108.356 83.1812 108.521 82.9928 108.687C82.8826 108.782 82.7753 108.878 82.6652 108.971C82.526 109.09 82.3898 109.208 82.2507 109.327C82.097 109.461 81.9405 109.591 81.7868 109.724C81.6361 109.852 81.4825 109.98 81.3317 110.11C81.21 110.211 81.0882 110.313 80.9665 110.414C80.8476 110.513 80.7288 110.614 80.6099 110.713C80.4041 110.884 80.2012 111.052 79.9954 111.22C79.8823 111.313 79.7664 111.406 79.6533 111.499C79.5142 111.612 79.375 111.728 79.2359 111.838C79.1402 111.913 79.0475 111.988 78.9576 112.064C78.6996 112.27 78.4445 112.475 78.1865 112.681L77.972 112.849C77.8126 112.977 77.6502 113.104 77.4908 113.229L77.2937 113.386C76.9777 113.632 76.6618 113.878 76.3458 114.122L76.2762 114.177C76.0994 114.313 75.9226 114.45 75.7457 114.586L75.6356 114.67C75.0935 115.081 74.5514 115.493 74.0064 115.899L73.9688 115.928C72.8875 116.731 71.8004 117.528 70.7018 118.308L70.3481 118.56C70.2032 118.662 70.0583 118.763 69.9162 118.864L69.5539 119.12C69.3683 119.25 69.1857 119.378 69.0002 119.508L68.7799 119.662C65.0607 122.253 61.2575 124.729 57.3672 127.056L55.6193 128.103L53.8713 127.056C50.3202 124.932 46.8475 122.679 43.4384 120.337C39.0351 117.311 34.7333 114.122 30.6199 110.71C26.4543 107.266 22.4076 103.564 18.9116 99.454Z"/>
</mask>
<path fill-rule="evenodd" clip-rule="evenodd" d="M18.9116 99.454C18.0159 99.6424 17.1027 99.738 16.1867 99.738C8.90488 99.738 3 93.8332 3 86.5513C3 81.2407 6.1887 76.4693 11.0152 74.4169V22.8586L15.5548 22.3542C20.732 21.7773 26.0369 22.0469 31.1504 23.018C36.8784 24.1051 42.5572 26.1111 47.5838 29.0997C47.8794 28.9229 48.1751 28.7548 48.4766 28.5896C48.5201 26.4212 49.0071 24.1167 50.8623 22.7658C53.6742 20.5453 57.002 21.1454 58.9123 24.1428C60.4052 24.5167 61.7676 25.2182 62.8692 26.2966C63.5185 26.372 64.1679 26.4763 64.8114 26.5952L65.1303 26.6531L65.4317 26.772C68.1044 27.8214 70.8235 28.8041 73.5745 29.6273C75.3109 30.1462 80.0302 31.471 81.7637 30.9144C86.8917 29.0852 92.4603 28.2591 97.7651 29.8679L100.18 30.6013V83.9656L100.162 84.1395C100.136 84.4004 100.102 84.6642 100.061 84.9222C100.049 84.986 100.041 85.0469 100.032 85.1106C99.9885 85.3628 99.9421 85.6121 99.8928 85.8614V85.8643C99.8378 86.1252 99.774 86.3861 99.7073 86.647C99.6899 86.7079 99.6754 86.7717 99.658 86.8354C99.5914 87.0789 99.5247 87.3195 99.4493 87.5601L99.4406 87.5862C99.3624 87.8413 99.2754 88.0935 99.1855 88.3457C99.1652 88.4066 99.142 88.4704 99.1189 88.5312C99.0319 88.7689 98.9391 89.0066 98.8464 89.2443L98.8435 89.253C98.742 89.511 98.629 89.769 98.5159 90.0241C98.4898 90.085 98.4608 90.143 98.4347 90.2038C98.3275 90.4416 98.2173 90.6764 98.1043 90.9112L98.0985 90.9199C97.9738 91.1807 97.8405 91.4358 97.7071 91.6909L97.626 91.8446C97.5013 92.0794 97.3709 92.3113 97.2433 92.5432L97.2317 92.5635C97.0897 92.8186 96.9418 93.065 96.7911 93.3143C96.7563 93.3722 96.7215 93.4302 96.6839 93.4882C96.5447 93.7172 96.4027 93.9433 96.2577 94.1694L96.2461 94.1897C96.0867 94.4419 95.9215 94.6912 95.7533 94.9376L95.649 95.0941C95.4924 95.3232 95.3359 95.5493 95.1765 95.7754L95.162 95.7986C94.9881 96.0479 94.8054 96.2943 94.6228 96.5378L94.5068 96.6943C94.3416 96.9175 94.1735 97.1349 94.0053 97.3523L93.9706 97.3987C93.785 97.6422 93.5937 97.8799 93.4024 98.1176L93.2719 98.2799C93.098 98.4974 92.9212 98.709 92.7444 98.9235L92.7009 98.9757C92.5038 99.2134 92.3008 99.4511 92.0979 99.683L91.953 99.8511C91.7733 100.06 91.5906 100.266 91.408 100.471L91.3442 100.544C91.1384 100.776 90.9297 101.005 90.721 101.234L90.5558 101.414C90.376 101.611 90.1905 101.808 90.0079 102.002L89.9151 102.101C89.7035 102.327 89.4919 102.547 89.2745 102.767L89.0832 102.964C88.9034 103.15 88.7179 103.335 88.5353 103.518L88.4251 103.631C88.2106 103.849 87.9932 104.06 87.7758 104.275C87.7004 104.347 87.628 104.42 87.5526 104.495C87.3729 104.672 87.1931 104.846 87.0105 105.02C86.9612 105.066 86.9148 105.112 86.8656 105.159C86.6511 105.362 86.4365 105.565 86.222 105.768C86.1351 105.849 86.0481 105.93 85.9611 106.011C85.7988 106.165 85.6336 106.315 85.4683 106.469C85.3843 106.547 85.3002 106.626 85.2161 106.701C85.019 106.881 84.819 107.063 84.619 107.243C84.5233 107.33 84.4277 107.414 84.3349 107.498C84.1755 107.64 84.0189 107.782 83.8595 107.924C83.758 108.014 83.6566 108.101 83.558 108.191C83.3696 108.356 83.1812 108.521 82.9928 108.687C82.8826 108.782 82.7753 108.878 82.6652 108.971C82.526 109.09 82.3898 109.208 82.2507 109.327C82.097 109.461 81.9405 109.591 81.7868 109.724C81.6361 109.852 81.4825 109.98 81.3317 110.11C81.21 110.211 81.0882 110.313 80.9665 110.414C80.8476 110.513 80.7288 110.614 80.6099 110.713C80.4041 110.884 80.2012 111.052 79.9954 111.22C79.8823 111.313 79.7664 111.406 79.6533 111.499C79.5142 111.612 79.375 111.728 79.2359 111.838C79.1402 111.913 79.0475 111.988 78.9576 112.064C78.6996 112.27 78.4445 112.475 78.1865 112.681L77.972 112.849C77.8126 112.977 77.6502 113.104 77.4908 113.229L77.2937 113.386C76.9777 113.632 76.6618 113.878 76.3458 114.122L76.2762 114.177C76.0994 114.313 75.9226 114.45 75.7457 114.586L75.6356 114.67C75.0935 115.081 74.5514 115.493 74.0064 115.899L73.9688 115.928C72.8875 116.731 71.8004 117.528 70.7018 118.308L70.3481 118.56C70.2032 118.662 70.0583 118.763 69.9162 118.864L69.5539 119.12C69.3683 119.25 69.1857 119.378 69.0002 119.508L68.7799 119.662C65.0607 122.253 61.2575 124.729 57.3672 127.056L55.6193 128.103L53.8713 127.056C50.3202 124.932 46.8475 122.679 43.4384 120.337C39.0351 117.311 34.7333 114.122 30.6199 110.71C26.4543 107.266 22.4076 103.564 18.9116 99.454Z" fill="#062446"/>
<path fill-rule="evenodd" clip-rule="evenodd" d="M18.9116 99.454C18.0159 99.6424 17.1027 99.738 16.1867 99.738C8.90488 99.738 3 93.8332 3 86.5513C3 81.2407 6.1887 76.4693 11.0152 74.4169V22.8586L15.5548 22.3542C20.732 21.7773 26.0369 22.0469 31.1504 23.018C36.8784 24.1051 42.5572 26.1111 47.5838 29.0997C47.8794 28.9229 48.1751 28.7548 48.4766 28.5896C48.5201 26.4212 49.0071 24.1167 50.8623 22.7658C53.6742 20.5453 57.002 21.1454 58.9123 24.1428C60.4052 24.5167 61.7676 25.2182 62.8692 26.2966C63.5185 26.372 64.1679 26.4763 64.8114 26.5952L65.1303 26.6531L65.4317 26.772C68.1044 27.8214 70.8235 28.8041 73.5745 29.6273C75.3109 30.1462 80.0302 31.471 81.7637 30.9144C86.8917 29.0852 92.4603 28.2591 97.7651 29.8679L100.18 30.6013V83.9656L100.162 84.1395C100.136 84.4004 100.102 84.6642 100.061 84.9222C100.049 84.986 100.041 85.0469 100.032 85.1106C99.9885 85.3628 99.9421 85.6121 99.8928 85.8614V85.8643C99.8378 86.1252 99.774 86.3861 99.7073 86.647C99.6899 86.7079 99.6754 86.7717 99.658 86.8354C99.5914 87.0789 99.5247 87.3195 99.4493 87.5601L99.4406 87.5862C99.3624 87.8413 99.2754 88.0935 99.1855 88.3457C99.1652 88.4066 99.142 88.4704 99.1189 88.5312C99.0319 88.7689 98.9391 89.0066 98.8464 89.2443L98.8435 89.253C98.742 89.511 98.629 89.769 98.5159 90.0241C98.4898 90.085 98.4608 90.143 98.4347 90.2038C98.3275 90.4416 98.2173 90.6764 98.1043 90.9112L98.0985 90.9199C97.9738 91.1807 97.8405 91.4358 97.7071 91.6909L97.626 91.8446C97.5013 92.0794 97.3709 92.3113 97.2433 92.5432L97.2317 92.5635C97.0897 92.8186 96.9418 93.065 96.7911 93.3143C96.7563 93.3722 96.7215 93.4302 96.6839 93.4882C96.5447 93.7172 96.4027 93.9433 96.2577 94.1694L96.2461 94.1897C96.0867 94.4419 95.9215 94.6912 95.7533 94.9376L95.649 95.0941C95.4924 95.3232 95.3359 95.5493 95.1765 95.7754L95.162 95.7986C94.9881 96.0479 94.8054 96.2943 94.6228 96.5378L94.5068 96.6943C94.3416 96.9175 94.1735 97.1349 94.0053 97.3523L93.9706 97.3987C93.785 97.6422 93.5937 97.8799 93.4024 98.1176L93.2719 98.2799C93.098 98.4974 92.9212 98.709 92.7444 98.9235L92.7009 98.9757C92.5038 99.2134 92.3008 99.4511 92.0979 99.683L91.953 99.8511C91.7733 100.06 91.5906 100.266 91.408 100.471L91.3442 100.544C91.1384 100.776 90.9297 101.005 90.721 101.234L90.5558 101.414C90.376 101.611 90.1905 101.808 90.0079 102.002L89.9151 102.101C89.7035 102.327 89.4919 102.547 89.2745 102.767L89.0832 102.964C88.9034 103.15 88.7179 103.335 88.5353 103.518L88.4251 103.631C88.2106 103.849 87.9932 104.06 87.7758 104.275C87.7004 104.347 87.628 104.42 87.5526 104.495C87.3729 104.672 87.1931 104.846 87.0105 105.02C86.9612 105.066 86.9148 105.112 86.8656 105.159C86.6511 105.362 86.4365 105.565 86.222 105.768C86.1351 105.849 86.0481 105.93 85.9611 106.011C85.7988 106.165 85.6336 106.315 85.4683 106.469C85.3843 106.547 85.3002 106.626 85.2161 106.701C85.019 106.881 84.819 107.063 84.619 107.243C84.5233 107.33 84.4277 107.414 84.3349 107.498C84.1755 107.64 84.0189 107.782 83.8595 107.924C83.758 108.014 83.6566 108.101 83.558 108.191C83.3696 108.356 83.1812 108.521 82.9928 108.687C82.8826 108.782 82.7753 108.878 82.6652 108.971C82.526 109.09 82.3898 109.208 82.2507 109.327C82.097 109.461 81.9405 109.591 81.7868 109.724C81.6361 109.852 81.4825 109.98 81.3317 110.11C81.21 110.211 81.0882 110.313 80.9665 110.414C80.8476 110.513 80.7288 110.614 80.6099 110.713C80.4041 110.884 80.2012 111.052 79.9954 111.22C79.8823 111.313 79.7664 111.406 79.6533 111.499C79.5142 111.612 79.375 111.728 79.2359 111.838C79.1402 111.913 79.0475 111.988 78.9576 112.064C78.6996 112.27 78.4445 112.475 78.1865 112.681L77.972 112.849C77.8126 112.977 77.6502 113.104 77.4908 113.229L77.2937 113.386C76.9777 113.632 76.6618 113.878 76.3458 114.122L76.2762 114.177C76.0994 114.313 75.9226 114.45 75.7457 114.586L75.6356 114.67C75.0935 115.081 74.5514 115.493 74.0064 115.899L73.9688 115.928C72.8875 116.731 71.8004 117.528 70.7018 118.308L70.3481 118.56C70.2032 118.662 70.0583 118.763 69.9162 118.864L69.5539 119.12C69.3683 119.25 69.1857 119.378 69.0002 119.508L68.7799 119.662C65.0607 122.253 61.2575 124.729 57.3672 127.056L55.6193 128.103L53.8713 127.056C50.3202 124.932 46.8475 122.679 43.4384 120.337C39.0351 117.311 34.7333 114.122 30.6199 110.71C26.4543 107.266 22.4076 103.564 18.9116 99.454Z" stroke="white" stroke-width="5.8707" mask="url(#path-2-outside-1_501_984)"/>
<path fill-rule="evenodd" clip-rule="evenodd" d="M55.5956 124.126C57.619 122.914 60.2221 121.291 63.1325 119.357L63.0948 118.531C63.0775 118.105 63.1238 117.679 63.2108 117.261C63.2514 116.78 63.4021 116.325 63.6717 115.919C64.7124 114.342 67.0894 114.09 68.8258 114.061L69.449 114.049C69.2258 112.869 69.1853 111.669 69.3418 110.478C69.3708 109.788 69.3476 108.779 69.0171 108.179C68.9736 108.101 68.936 108.02 68.9041 107.936C67.7561 104.964 66.6111 101.99 65.4719 99.0132C65.4574 98.9726 65.4429 98.9291 65.4284 98.8885C64.0949 94.5548 64.3008 89.4819 64.8747 85.0264C64.9037 84.8032 64.9675 84.5887 65.066 84.3915C63.8746 83.5567 62.5586 83.1624 61.0425 83.4494C60.3961 83.5741 59.7467 83.3712 59.2829 82.9045C57.5523 81.1652 56.1232 79.1882 55.0188 77.0083C54.5607 76.9271 54.1172 76.7735 53.7085 76.5503C52.72 76.0169 51.7924 75.2197 51.4503 74.1124C51.2851 73.5761 51.2793 73.034 51.4039 72.5122C50.859 71.7962 50.6242 70.9295 50.6734 70.0134C50.5517 69.6772 50.4502 69.3351 50.3749 68.9873C50.0444 67.4567 50.398 65.8594 52.0765 65.3608C52.7258 65.1666 53.407 65.1782 54.0216 65.4362C55.0564 65.5377 56.042 65.4623 56.9697 65.1463C55.3724 64.0593 53.6302 63.2273 51.7779 62.6186C50.8764 62.5142 49.7777 62.2968 49.1052 61.6562C47.5688 61.8185 45.5512 61.8852 44.2902 61.0822C42.1625 61.4822 40.229 60.6155 38.5999 59.1255C37.5882 58.4124 36.3562 58.2935 35.1503 58.4269C34.2256 58.7023 33.124 58.8182 32.4515 57.9573C32.121 57.534 32.0457 57.0499 32.1181 56.5716C31.4021 56.5658 30.7151 56.3629 30.289 55.7136C30.1846 55.557 30.1092 55.3889 30.06 55.215C29.3787 54.5367 29.0251 53.6815 28.9874 52.7336C28.1352 52.1017 27.48 51.2784 27.1119 50.2435C26.9843 49.887 26.9466 49.5101 27.0162 49.1391C27.28 47.7245 28.8077 47.1592 30.0542 46.8722C31.2775 46.304 32.5964 45.3822 33.6864 44.614L33.698 44.6053L33.7096 44.5966C35.1561 43.6255 36.6432 42.5965 37.9824 41.4775C38.2143 41.2804 38.7999 40.7789 39.1738 40.3644C39.142 40.2977 39.113 40.2281 39.0869 40.1586C38.6694 39.0164 39.3999 37.9468 40.1623 37.1641C41.1015 36.1988 42.3422 35.3262 43.467 34.5812C44.3917 33.7957 45.3541 33.0362 46.3542 32.3289C37.6665 26.9892 26.1669 24.5919 15.9311 25.7341L14.418 25.9022V76.3908C14.905 76.3183 15.4007 76.2807 15.908 76.2807C21.5085 76.2807 26.048 80.8202 26.048 86.4207C26.048 90.4964 23.642 94.0098 20.1721 95.6215C29.4309 107.356 47.3224 119.174 55.5956 124.126Z" fill="#0B4C8E"/>
<path fill-rule="evenodd" clip-rule="evenodd" d="M67.9314 116.074C66.0849 116.222 65.1631 116.706 65.1631 117.518C65.1196 117.712 65.0877 117.892 65.0703 118.054C66.0066 117.422 66.9603 116.761 67.9314 116.074Z" fill="#23A4DB"/>
<path fill-rule="evenodd" clip-rule="evenodd" d="M96.7757 50.772V45.6469C89.1489 45.9861 83.4179 47.0441 79.5828 48.8269C84.3745 48.395 87.9488 48.2616 90.3026 48.4298C83.0063 49.2849 77.8754 50.4879 74.9099 52.0388C85.4239 50.8793 92.7115 50.456 96.7757 50.772ZM96.7757 61.5817V60.5758C93.7725 60.2077 90.6244 60.1062 87.3342 60.2627C90.004 59.5902 93.1521 59.0945 96.7757 58.7756V57.1146C93.9174 57.0624 91.0505 57.2798 88.1836 57.7668C90.5142 57.1117 93.3782 56.6595 96.7757 56.4044V54.4448C93.9899 54.3289 91.1954 54.4448 88.3952 54.7956C90.8969 54.1433 93.6913 53.6737 96.7757 53.3925V51.4938C88.3807 51.2213 81.2351 52.3751 75.3389 54.9579C77.6377 54.9057 79.69 54.8883 81.496 54.9057C78.458 56.071 76.1767 57.2914 74.649 58.5669C77.8493 57.7437 80.3452 57.4422 82.1337 57.6654C79.032 58.9351 76.339 60.3091 74.0547 61.7962L74.1185 61.8078C77.0666 60.8831 79.7016 60.5642 82.0265 60.8483C79.9567 61.8629 78.203 62.8311 76.768 63.7529L76.7738 63.779C76.8695 64.2979 76.9362 64.8602 76.9246 65.411C78.8088 64.9617 80.6322 64.7327 82.3975 64.724C79.8205 66.0517 78.174 67.2373 77.458 68.278L77.5681 68.3504C84.2934 65.6139 90.6447 64.3877 96.622 64.6689C93.0884 63.0949 88.0995 62.7035 81.6554 63.5007C87.0936 62.4021 92.1346 61.7614 96.7757 61.5817ZM80.0089 70.1854C84.3948 68.5765 88.8532 67.7562 93.384 67.7185C88.1865 65.5241 83.7281 66.3473 80.0089 70.1854ZM81.6265 73.3451C82.4845 71.542 84.0991 70.2173 86.0326 69.7245C87.9662 69.2317 90.0185 69.6259 91.6332 70.797C88.2647 70.3303 84.9282 71.1797 81.6265 73.3451ZM83.4324 76.1308C83.5571 74.5568 84.6238 73.2175 86.1312 72.745C87.6357 72.2725 89.2793 72.7624 90.2794 73.9799C87.8067 73.8031 85.3601 74.5742 83.4324 76.1308ZM90.0678 75.2293C88.6967 74.6901 87.1371 75.067 86.1631 76.1714C85.1891 77.2759 85.0094 78.8731 85.7167 80.1631C86.2356 77.8875 87.8734 76.0294 90.0678 75.2293ZM89.0851 77.4846C87.7227 77.9107 86.7081 79.0528 86.4472 80.453C86.1863 81.8531 86.7226 83.2851 87.8386 84.1721C87.3632 81.8647 87.8125 79.4645 89.0851 77.4846ZM55.0501 27.6888C55.1023 26.9757 54.4791 26.5292 53.1804 26.3495C54.1805 25.6335 54.998 25.59 55.6357 26.2162C56.285 27.4829 57.1895 28.3091 58.3548 28.6975C59.1925 29.0454 59.3897 29.5063 58.9403 30.0774C58.52 30.2687 57.9576 30.2774 57.2561 30.1035C56.3517 29.8339 55.6299 30.0861 55.0936 30.8601C55.0936 30.1614 55.3371 29.5817 55.8241 29.1208C55.3284 28.7352 55.0704 28.2598 55.0501 27.6888ZM78.7856 37.7592C74.1707 36.6635 71.5067 35.2402 70.7965 33.4864C74.2867 35.6112 78.3073 36.707 82.3917 36.6432C81.1163 37.7621 80.3046 38.6028 79.9509 39.1652C80.3539 39.2666 80.7684 39.3652 81.2032 39.4608C83.302 36.9186 85.4674 35.9011 87.6995 36.4055C85.2413 37.6781 83.6353 38.8086 82.8787 39.7971C83.4324 39.8986 84.0093 39.9942 84.6093 40.0841C86.8124 37.9795 88.5749 37.2838 89.8997 37.9969C88.4213 38.3187 87.2212 39.0927 86.2964 40.316C86.682 40.3653 87.0733 40.4117 87.4734 40.4551C89.0445 39.2434 90.3751 38.7941 91.465 39.113C90.5664 39.4203 89.7982 39.9247 89.1634 40.6291C90.4881 40.7537 91.894 40.8581 93.3753 40.945C91.7781 41.2349 90.1606 41.3972 88.5488 41.4349C87.5284 41.4581 86.5081 41.4291 85.4906 41.3509C83.8006 43.0119 82.3077 43.6438 81.009 43.2525C82.1801 42.6495 83.073 41.9509 83.6875 41.1595C83.1831 41.09 82.6816 41.0117 82.1801 40.916C79.5393 43.2699 77.8145 43.9076 77.0028 42.8264C78.3276 42.5568 79.4697 41.7944 80.435 40.5392C79.3567 40.2725 78.2899 39.9478 77.2405 39.5652C77.887 38.8202 78.4001 38.2202 78.7856 37.7592ZM43.8491 37.7592C44.2984 36.8954 45.1188 36.0142 46.3044 35.1184C44.4086 35.9533 42.8519 37.0171 41.6344 38.3042C41.3822 38.9362 41.6924 39.4116 42.562 39.7217C44.0636 41.2494 44.6202 42.2263 44.2347 42.6553C43.2462 42.8641 42.5099 42.7887 42.0316 42.4292C42.5389 42.3046 42.707 42.0292 42.536 41.606C42.3591 41.0407 42.3417 40.4609 42.4838 39.8667C41.9359 40.2261 41.5562 40.6146 41.3416 41.0349C39.9038 43.1423 36.9296 45.4701 32.4249 48.0123C32.1263 48.0935 31.7669 48.1631 31.3494 48.224C29.729 48.3805 28.9289 48.8066 28.9463 49.4965C28.8941 49.9082 29.0739 50.172 29.4768 50.2937C29.5232 51.1576 30.1609 51.2822 31.3871 50.6648C31.3465 50.5459 31.3842 50.4097 31.4828 50.3314C31.5813 50.2531 31.7205 50.2415 31.8306 50.3082C31.9408 50.3749 31.9959 50.4995 31.9698 50.6242C31.7553 51.0358 31.4103 51.3634 30.9871 51.5547C31.7002 53.9549 33.1815 54.9637 35.431 54.5782C36.9412 54.3839 38.1703 54.0042 39.1212 53.4389C39.8661 52.9548 40.8488 53.0534 41.4808 53.6766C40.8836 53.7607 40.356 54.1114 40.0488 54.6303C39.2197 55.013 38.2921 55.126 37.3935 54.9492C36.3209 54.868 35.2802 55.3376 34.6338 56.1957C34.3294 56.6566 34.628 56.8044 35.5353 56.645C36.376 56.1957 37.1818 56.1522 37.95 56.5117C38.9762 56.7378 39.6835 56.6566 40.072 56.2711C41.6257 55.1782 43.8027 55.4333 46.6001 57.0421C45.971 55.3492 44.6028 54.039 42.8838 53.4853C44.6898 53.6331 46.3856 54.4013 47.6871 55.6594C47.09 53.6389 45.3478 52.1692 43.2549 51.917C44.7448 51.3315 46.4378 51.6996 47.5538 52.8476C46.948 50.8213 45.1043 49.4154 42.9882 49.3719C44.1564 48.9805 45.4406 49.1255 46.4899 49.769C46.0145 49.0095 45.2985 48.2935 44.3419 47.621C42.4113 46.102 41.9243 44.8092 42.8838 43.7453C43.8259 43.5192 44.8579 43.5743 45.9739 43.9047C46.1247 43.9917 46.3131 43.9772 46.4436 43.8612C46.574 43.7453 46.6146 43.5598 46.545 43.4003C45.7971 42.6756 45.3797 41.4987 45.2985 39.8696C45.3594 39.4087 44.9188 38.9304 43.9738 38.4376C43.8317 38.3941 43.7245 38.2781 43.6984 38.1332C43.681 37.9969 43.7361 37.8491 43.8491 37.7592ZM96.7757 44.3309V42.7655C94.0537 43.0612 92.0013 43.8265 90.6215 45.0585C92.6043 44.5743 94.6566 44.3337 96.7757 44.3309Z" fill="white"/>
<path fill-rule="evenodd" clip-rule="evenodd" d="M72.0054 66.6701C71.9329 66.7773 71.7532 66.8788 71.4604 66.9716C72.646 66.986 73.5562 67.189 74.1853 67.5774C74.3215 66.8672 74.3969 66.1947 74.4085 65.5598C74.5331 65.8874 74.6317 66.1106 74.71 66.2266C74.823 65.354 74.481 64.5337 73.6809 63.7655C74.194 64.9801 74.1476 65.8004 73.5417 66.2266C73.0113 65.9889 72.4982 66.1367 72.0054 66.6701ZM71.3589 113.599C72.7504 112.573 74.1534 111.503 75.5506 110.402C75.3854 110.265 75.2723 110.158 75.2115 110.074C76.026 109.752 76.5565 109.448 76.8058 109.167C76.4145 108.752 76.0579 108.416 75.7361 108.158C76.2869 107.871 76.7623 107.529 77.1682 107.129C76.6551 106.648 76.313 106.219 76.1391 105.836C76.6 105.827 77.0638 105.781 77.5305 105.694C76.5275 104.691 75.5477 103.737 74.5824 102.83C75.7825 103.676 76.6956 104.039 77.3247 103.92C76.0202 103.088 75.1216 102.154 74.623 101.114C75.4492 101.641 76.2753 101.85 77.1044 101.74C75.5738 100.577 74.5563 99.2267 74.0577 97.6845C74.8607 98.3367 75.5999 98.7339 76.2782 98.8759C75.7825 96.8061 75.0549 95.2988 74.0983 94.3566C76.7014 95.7655 78.0291 98.2353 78.0726 101.76C77.7479 104.166 78.0697 105.523 79.0408 105.836C79.0611 106.395 79.0553 106.975 79.0234 107.578C81.0902 105.845 83.0962 104.053 84.9776 102.23C84.9138 102.027 84.8442 101.821 84.7746 101.609C84.1978 100.108 83.2846 98.8237 82.0295 97.757C83.5108 98.3947 84.7688 99.4093 85.8037 100.804C85.6878 98.9049 84.7833 97.1163 83.0817 95.4379C84.105 95.6727 85.0558 96.0496 85.9284 96.5684C84.6442 94.8292 83.2325 93.0145 81.6903 91.1216C83.3745 92.1362 84.6732 92.829 85.5834 93.2C84.1833 91.4694 82.789 89.5707 81.4062 87.5096C82.5397 88.4894 83.7137 88.7301 84.937 88.2373C83.9108 87.8894 83.5339 87.298 83.8064 86.4632C83.6528 83.2687 82.3135 80.8337 79.7916 79.1582C80.9047 79.4249 81.8729 79.277 82.6962 78.7146C81.6381 78.274 80.7511 77.8711 80.0322 77.5029C80.7192 77.1928 81.2178 76.6942 81.5251 76.0101C80.7366 76.3724 79.9684 76.5869 79.2263 76.6565C80.2032 75.7492 80.9308 74.9665 81.4062 74.3171C80.2815 74.5375 79.2379 74.6302 78.2784 74.5983C79.1886 74.2737 79.9133 73.8417 80.4583 73.3084C79.4002 72.9141 78.2987 72.7141 77.1508 72.7025C78.2059 72.3344 79.1393 72.2561 79.9568 72.459C79.2611 70.2994 77.6552 68.7311 75.1361 67.76C76.2086 67.2035 76.5594 65.9106 76.1855 63.8872C74.6375 61.9682 72.7938 61.832 70.6574 63.4843C69.2283 62.9422 68.3645 63.2669 68.0717 64.4612C67.576 63.522 65.5845 62.9973 62.1001 62.8871C60.7232 63.0147 60.2391 63.4843 60.6478 64.2988C61.2189 65.2265 61.8537 65.928 62.5436 66.3976C62.7292 66.8556 62.7031 67.4615 62.4625 68.2151C61.0392 68.6268 60.3782 67.647 60.4855 65.27C58.5839 67.0324 56.23 67.7252 53.424 67.3484C53.2211 67.189 52.9573 67.1542 52.6355 67.2469C52.0557 67.4238 52.0702 68.2615 52.6761 69.7689C52.5311 70.5516 52.7109 71.1632 53.2211 71.6068C53.94 72.0155 54.5371 72.0793 55.0067 71.7981C55.2096 71.6097 55.5082 71.5633 55.7575 71.6821C56.0068 71.801 56.1605 72.0619 56.1431 72.3373C56.1257 72.6155 55.9401 72.8533 55.6763 72.9373C55.4126 73.0243 55.1227 72.9373 54.9458 72.7257C54.5313 72.3807 53.9487 72.3199 53.4732 72.575C53.0065 73.4156 53.3979 74.1693 54.6444 74.8331C55.3633 75.2303 56.2329 75.2216 56.9431 74.8128C56.7228 75.0621 56.5402 75.2448 56.3982 75.3578C57.4504 77.6624 58.8795 79.7234 60.6739 81.5294C64.6047 80.7815 68.0746 83.2426 71.0835 88.9156C69.3993 87.1473 67.976 85.9385 66.8194 85.2834C66.1266 90.6665 66.286 95.0089 67.3035 98.3164C68.4601 101.328 69.6022 104.302 70.7328 107.233C71.185 108.051 71.3734 109.193 71.2981 110.662C71.1618 111.628 71.1821 112.608 71.3589 113.599Z" fill="white"/>
<path fill-rule="evenodd" clip-rule="evenodd" d="M26.0462 86.4775C33.6787 85.5992 41.3954 87.2254 48.0337 91.1156C41.5722 85.9122 33.6034 82.9496 25.3244 82.6598C24.791 81.3292 23.9851 80.1378 22.9763 79.1551C41.8476 80.5378 58.8115 91.2229 68.2036 107.682C57.7418 94.8203 41.2128 88.5357 24.8663 91.1765C25.6113 89.7734 26.0375 88.1733 26.0462 86.4775Z" fill="white"/>
<path fill-rule="evenodd" clip-rule="evenodd" d="M55.5958 102.14L57.2336 107.21L62.5616 107.198L58.2453 110.323L59.9005 115.387L55.5958 112.248L51.291 115.387L52.9491 110.323L48.6328 107.198L53.9608 107.21L55.5958 102.14Z" fill="white"/>
<path fill-rule="evenodd" clip-rule="evenodd" d="M10.4326 80.6896C10.4326 80.5911 10.4471 80.4693 10.4848 80.3766C10.5544 80.1997 10.8384 79.8287 10.9573 79.675C11.2849 79.246 11.653 78.8286 12.0588 78.4662C12.3168 78.3271 12.5661 78.1648 12.8154 78.0082C12.4937 78.0865 12.1313 78.1126 11.8327 78.2691H11.8211C11.8124 78.272 11.8038 78.2662 11.8009 78.2604C11.798 78.2517 11.798 78.243 11.8067 78.2372L11.8849 78.1676C13.0966 77.5676 14.4591 77.3067 15.8041 77.298C16.3897 77.2951 17.1028 77.3328 17.6768 77.4574C17.6796 77.4574 17.6825 77.4603 17.6854 77.4603L17.7492 77.5067C17.755 77.5125 17.7579 77.5212 17.755 77.527C17.7521 77.5357 17.7434 77.5386 17.7376 77.5386C17.5927 77.5444 17.4477 77.5531 17.3057 77.5589C17.1695 77.5647 16.9781 77.5647 16.8477 77.585C16.8274 77.5879 16.8013 77.6053 16.7839 77.614C16.7781 77.6169 16.7752 77.6169 16.7723 77.6169C16.465 77.5937 16.1578 77.5705 15.8505 77.5879C16.1926 77.6256 16.5201 77.7125 16.8419 77.8314C16.8912 77.8488 16.9376 77.8662 16.9926 77.8836C17.0071 77.8952 17.0245 77.9039 17.039 77.9155C17.3086 78.1097 17.5985 78.3706 17.8507 78.588C18.0304 78.7445 18.2101 78.9011 18.3841 79.0634L18.387 79.0663C18.671 79.3475 18.758 79.7649 18.5261 80.1128L17.3869 81.8144L16.8361 82.5941C16.8332 82.5999 16.8274 82.5999 16.8216 82.6028C16.8158 82.6028 16.81 82.5999 16.8071 82.597C16.6013 82.368 16.3404 82.339 16.0505 82.3622C15.5345 82.4028 15.0098 82.4695 14.4967 82.5304C13.9663 82.5912 13.43 82.655 12.9024 82.7362C12.7749 82.7565 12.6444 82.7739 12.5198 82.8058C12.514 82.8058 12.5053 82.8058 12.5024 82.8L10.45 80.707C10.4326 80.7041 10.4297 80.6983 10.4326 80.6896ZM24.9354 86.2437C24.9006 86.0669 24.8223 85.864 24.7528 85.6959C24.7383 85.6147 24.7238 85.5306 24.7093 85.4495C24.5991 84.7712 24.3875 84.1131 24.0773 83.4986C24.0773 83.4986 24.0715 83.4986 24.0715 83.5015C24.2513 83.9624 24.3382 84.4407 24.3788 84.9306C24.3788 84.9393 24.373 84.948 24.3672 84.9509C24.3585 84.9538 24.3498 84.9509 24.344 84.9422C24.2513 84.7943 24.1208 84.6001 23.9904 84.4813C23.9875 84.4784 23.9846 84.4755 23.9846 84.4697C23.8396 83.516 23.5353 82.571 23.0367 81.7419C22.8627 81.4549 22.6047 81.0781 22.3554 80.8462L22.2337 80.7157C22.2279 80.7099 22.2279 80.6983 22.2337 80.6896C22.2598 80.6635 22.2627 80.6056 22.2627 80.5708C22.2627 80.3563 22.2163 79.962 22.1293 79.7678C22.1264 79.762 22.1264 79.7533 22.1322 79.7475C22.138 79.7417 22.1438 79.7388 22.1525 79.7417L22.3033 79.7823C22.3062 79.7823 22.3091 79.7852 22.312 79.7881C23.4599 80.8114 24.2078 82.197 24.6426 83.658C24.8368 84.3131 25.0165 85.1393 25.0455 85.8321L24.976 86.2322C24.976 86.2408 24.9673 86.2467 24.9586 86.2467C24.9441 86.2582 24.9383 86.2524 24.9354 86.2437ZM17.5289 82.0173C17.5289 82.0144 17.5289 82.0115 17.5318 82.0057C17.8565 81.5564 18.1493 81.0839 18.4739 80.6403C18.5725 80.507 18.645 80.3476 18.7522 80.2258C19.0566 79.8751 19.6566 79.9881 20.0538 80.0693C20.7292 80.2084 21.2858 80.3766 21.8278 80.8114C22.8511 81.6317 23.4889 82.9507 23.57 84.2523C23.5932 84.6117 23.4715 85.0378 23.3468 85.3741C23.17 85.8379 22.6714 86.8612 22.138 86.9656C21.8713 87.0177 20.4625 86.6728 20.1349 86.6032C19.7001 86.5104 18.7638 86.3858 18.5812 85.9075C18.4015 85.4292 18.1724 84.9393 17.9695 84.4668C17.7782 84.0204 17.584 83.571 17.3985 83.1217C17.2071 82.6579 17.2622 82.4144 17.5289 82.0173ZM14.2764 89.9658C14.2561 89.9281 14.288 89.8876 14.3257 89.8963C14.3779 89.8963 14.4301 89.9021 14.4823 89.9021C14.6852 89.8847 14.5982 90.2441 14.4214 90.1282C14.3228 90.0673 14.3257 90.0673 14.2764 89.9658ZM17.0187 81.5071C17.039 81.4926 17.0709 81.5158 17.0593 81.539C16.981 81.7361 16.9347 81.9448 16.7694 82.0926C16.6216 82.226 16.4332 82.0289 16.552 81.8781C16.6796 81.7187 16.8622 81.6259 17.0187 81.5071ZM17.3115 81.2665C17.2709 81.2984 17.2158 81.2491 17.2274 81.2056C17.2506 81.1273 17.2738 81.052 17.2999 80.9737C17.3956 80.678 17.7579 81.0404 17.5173 81.1447C17.4448 81.1766 17.3782 81.2172 17.3115 81.2665ZM10.4036 88.4121C10.363 88.4237 10.337 88.3657 10.3746 88.3454C10.5747 88.2497 10.7573 88.1222 10.9602 88.0294C11.0617 87.983 11.2008 87.8787 11.3168 87.9077C11.6559 87.9859 11.8327 88.357 12.1255 88.5193C12.1864 88.5541 12.1458 88.644 12.0791 88.6295C11.798 88.5628 11.5776 88.357 11.3023 88.2729C10.966 88.1657 10.7167 88.328 10.4036 88.4121ZM24.0049 85.0349C24.0049 85.0349 24.8542 87.7511 23.0425 90.4731C23.0425 90.4731 23.2425 87.9743 22.8714 87.3859C22.8685 87.3859 23.5932 86.722 24.0049 85.0349ZM11.5052 78.3503C11.5052 78.3503 10.2036 78.9822 9.50789 80.3128C9.65863 80.2374 9.82966 80.1823 9.9688 80.0896C10.1224 79.9881 10.2065 79.8055 10.3109 79.6576C10.3109 79.6547 10.3167 79.6576 10.3167 79.6605C10.2587 80.0403 10.1978 80.2084 9.84995 80.3997C9.64124 80.5128 9.43542 80.6345 9.22671 80.7447C8.94842 80.9273 8.2643 81.394 7.92224 81.7941C7.91934 81.797 9.04118 79.4953 11.5052 78.3503ZM6.77721 86.9801C6.77721 86.9801 6.61487 89.4585 8.42083 91.9631C8.42083 91.9631 7.84687 90.8413 7.82658 89.5252C7.81209 88.7686 6.98592 88.1686 6.77721 86.9801ZM13.5749 94.7692C13.5749 94.7692 13.9286 95.5605 15.749 95.5287C16.6593 95.5113 17.4101 95.433 17.8797 95.288C18.1435 95.2011 18.471 94.83 18.6421 94.4851C18.6421 94.4851 18.3638 95.0301 17.5492 95.1663C16.7346 95.3054 14.517 95.3692 13.5749 94.7692ZM15.3374 88.5193C15.6969 88.2236 16.0476 87.9193 16.3984 87.6149C16.7926 87.2699 17.2332 87.0061 17.6362 86.6815C17.8536 86.5046 17.8739 86.3046 17.813 86.1017C17.8072 86.0205 17.7869 85.9307 17.755 85.835C17.6362 85.4988 16.8506 83.6377 16.668 83.3043C16.4824 82.9739 16.3375 82.7855 15.8505 82.8231C15.3606 82.8608 13.7025 83.0637 13.2879 83.1275C12.9053 83.1855 12.7662 83.2174 12.6821 83.3623C12.8763 83.9508 13.7836 85.8901 17.3521 86.1771C17.3057 86.4235 17.0883 86.6119 16.9202 86.8235C16.4448 87.4236 15.8679 87.9627 15.32 88.4961C15.2997 88.5106 15.3229 88.5309 15.3374 88.5193ZM12.2473 85.5017C12.2038 85.835 12.1342 86.1568 12.0559 86.4843C12.0241 86.6148 11.9284 86.8467 11.998 86.9742C12.1835 87.325 12.5777 87.4352 12.9314 87.5395C12.9517 87.5453 12.9633 87.5192 12.9517 87.5047C12.7517 87.2554 12.5024 87.0467 12.3139 86.7887C12.2096 86.6467 12.2618 86.3887 12.2618 86.2264C12.2647 85.9858 12.2676 85.7423 12.2705 85.5017C12.2734 85.4843 12.2473 85.4872 12.2473 85.5017ZM13.0821 87.6033C13.085 87.6033 13.085 87.5975 13.0821 87.5975C13.0792 87.6004 13.0792 87.6033 13.0821 87.6033ZM13.4358 87.8584C13.5227 88.0004 13.4764 88.0033 13.5894 88.1019C13.7402 88.2381 13.9054 87.9685 13.7112 87.8903C13.6126 87.8526 13.5662 87.8642 13.4561 87.8294C13.4416 87.8265 13.43 87.8439 13.4358 87.8584ZM14.1721 88.3135C14.1837 88.3367 14.1982 88.3628 14.2069 88.386C14.2677 88.5831 14.4968 88.3048 14.317 88.2758C14.2561 88.2642 14.2446 88.2642 14.1837 88.2787C14.1721 88.2816 14.1663 88.3019 14.1721 88.3135ZM24.8629 87.3308C24.8165 87.6468 24.7209 87.9338 24.6049 88.2294C24.4832 88.5425 24.5643 88.8701 24.4484 89.1802C24.4426 89.2005 24.4687 89.215 24.4832 89.2005C24.9267 88.6556 24.9122 88.0033 24.8977 87.3337C24.8977 87.3134 24.8658 87.3105 24.8629 87.3308ZM17.7782 77.9763C17.7753 77.9618 17.7666 77.9444 17.7463 77.9328C17.7202 77.9126 17.6941 77.8894 17.6681 77.8691C17.6565 77.9155 17.6449 77.9589 17.6333 78.0053C17.6507 78.0024 17.6681 77.9995 17.6854 77.9966L17.7144 77.9792L17.7782 77.9763ZM20.0074 78.3039C19.3175 77.9676 18.3232 77.527 17.5695 77.8546C17.5231 77.8749 17.5144 77.9531 17.555 77.9821C17.613 78.0285 17.6217 78.0372 17.697 78.0488H17.6999C17.7173 78.0546 17.7318 78.0575 17.7463 78.0662C18.2652 78.359 18.6942 78.8054 19.0392 79.1127C19.1696 79.2315 19.1667 79.3359 19.1667 79.3359C20.4248 79.3909 21.5119 80.0606 21.5119 80.0606L21.4278 79.849C19.3986 79.3301 18.6537 78.3358 18.471 78.043C18.5174 78.0488 18.5638 78.0517 18.6044 78.0546C19.0769 78.0778 19.5436 78.1821 19.9929 78.3271C20.0103 78.3329 20.019 78.3126 20.0074 78.3039ZM8.41504 88.8788C8.41214 88.8788 8.40924 88.8759 8.40924 88.873C7.75991 88.2903 7.16855 87.3859 6.89896 86.5568C6.97433 85.2263 7.23812 83.6058 7.82658 82.397C8.36286 81.8578 9.10206 81.194 9.77458 80.8404C9.78328 80.8375 9.79197 80.8375 9.79777 80.8462C9.90793 80.9592 10.05 81.0201 10.163 81.1215C10.3283 81.2694 10.4848 81.4259 10.6297 81.597C10.6355 81.6056 10.6471 81.5912 10.6413 81.5854C10.5486 81.4085 10.4558 81.2346 10.363 81.0549C10.3051 80.9389 10.2529 80.8201 10.1804 80.7128C10.1775 80.707 10.1775 80.7012 10.1804 80.6925C10.1833 80.6867 10.1891 80.6809 10.1949 80.6809C10.2529 80.6722 10.3109 80.6664 10.3688 80.6664C10.3746 80.6664 10.3804 80.6693 10.3833 80.6751L12.1342 83.0724C12.1371 83.0782 12.14 83.084 12.1342 83.0898C11.9632 83.5015 11.8269 83.9943 11.7197 84.4262C11.511 85.2582 11.366 86.1162 11.3081 86.9742C11.3081 86.98 11.3052 86.9858 11.2994 86.9887L8.56868 88.7918L11.4965 87.4294C11.5023 87.4265 11.511 87.4265 11.5168 87.4323C11.5429 87.4584 11.5718 87.4844 11.6008 87.5076C11.7719 87.6497 11.998 87.7917 12.1835 87.9135C12.514 88.1338 12.8502 88.3512 13.1865 88.5657C13.5459 88.7976 13.9083 89.0266 14.2706 89.2527C14.4214 89.3455 14.6765 89.5223 14.8359 89.5919C14.9026 89.6209 14.9751 89.6441 15.0504 89.6325C15.0562 89.6325 15.062 89.6325 15.0649 89.6383C15.0678 89.6412 15.0707 89.6441 15.0707 89.6499C15.0678 89.6412 15.0765 89.6296 15.0852 89.6296C15.1606 89.6093 15.2359 89.56 15.2968 89.5136C15.4707 89.3832 15.6505 89.215 15.8186 89.073C16.1404 88.7947 16.4621 88.5164 16.781 88.2352C17.0999 87.9569 17.4159 87.6787 17.7347 87.3975C17.9029 87.2496 18.0884 87.0931 18.2478 86.9366C18.3522 86.8322 18.413 86.7076 18.4333 86.5626C18.4333 86.5568 18.4362 86.551 18.442 86.551C18.4478 86.5481 18.4507 86.5452 18.4565 86.5481L22.2975 87.3366C22.3004 87.3366 22.3033 87.3395 22.3062 87.3424C22.3583 87.3946 22.425 87.5047 22.4569 87.5685C22.4598 87.5743 22.4598 87.583 22.4569 87.5888C22.4511 87.5946 22.4453 87.5975 22.4395 87.5975C21.8916 87.554 21.3467 87.4584 20.7988 87.4062C21.3872 87.6033 22.2511 87.7569 22.6018 88.3048C22.6018 88.3077 22.6047 88.3106 22.6047 88.3135C22.6598 89.0556 22.7207 90.1253 22.6105 90.85C22.6105 90.8558 22.6076 90.8558 22.6047 90.8616C21.7206 91.9167 20.5814 93.0038 19.4595 93.8328C19.7755 93.6531 20.0944 93.4386 20.3755 93.2386C21.3177 92.5748 22.1902 91.7921 22.9671 90.9398C22.97 90.9369 22.9729 90.9369 22.9758 90.934L22.9874 90.9311C23.1352 90.876 23.2802 90.8152 23.4193 90.7456C23.4251 90.7398 23.4338 90.7427 23.4396 90.7485C23.4454 90.7543 23.4483 90.763 23.4454 90.7688L23.4396 90.7833C23.1845 91.366 22.8569 91.8761 22.4018 92.311C22.8163 91.9863 23.2164 91.6182 23.5642 91.2268C23.57 91.221 23.5816 91.2181 23.5903 91.2239C23.599 91.2297 23.6019 91.2384 23.5961 91.25C22.8366 92.6124 21.7177 93.7024 20.3668 94.4735C19.8219 94.7836 19.0885 95.1286 18.471 95.2765L18.4304 95.3025C18.4217 95.3054 18.413 95.3054 18.4044 95.2996C18.3986 95.2909 18.3986 95.2822 18.4044 95.2736L18.9812 94.5633L19.2102 93.9488C18.7435 93.9778 18.2739 93.9749 17.8043 93.9285C17.3115 93.8184 16.2824 93.5604 16.0273 93.111C15.778 92.6762 15.5722 91.8008 15.4476 91.3051C15.3113 90.7572 15.1867 90.2064 15.0707 89.6557C15.207 90.9601 15.3287 92.282 15.4997 93.5806C15.4997 93.5893 15.4968 93.598 15.491 93.6009L15.4302 93.6357C15.4244 93.6386 15.4186 93.6386 15.4157 93.6357C15.4099 93.6328 15.4041 93.6299 15.4041 93.6241C15.2273 93.0589 15.0417 92.5139 14.9838 91.9167C14.978 92.3776 15.0185 92.8385 14.9895 93.2995C14.978 93.4966 14.9432 93.6937 14.9142 93.8908C14.9142 93.8966 14.9084 93.9024 14.9026 93.9053C14.3141 94.1807 13.4938 94.4822 12.827 94.5662C13.0937 94.9982 13.6619 95.3199 14.1112 95.5229C14.1199 95.5258 14.1228 95.5344 14.1228 95.546C14.1199 95.5547 14.1112 95.5605 14.1025 95.5605H13.8851C12.4067 95.3054 11.0501 94.6532 9.90793 93.6879C9.45571 93.3024 8.90494 92.7574 8.57157 92.2501L8.53679 92.1196L8.53389 92.1167C8.52809 92.111 8.52809 92.0994 8.53389 92.0936C8.53969 92.0878 8.54838 92.0849 8.55708 92.0878C8.62085 92.1254 8.68753 92.1602 8.7571 92.1979C9.56007 93.0154 10.5138 93.7401 11.5747 94.1865C11.8414 94.2996 12.2125 94.4329 12.5372 94.4967C11.1022 94.0242 9.80647 92.9052 8.91364 91.7109C8.55708 90.8094 8.39765 89.8354 8.41504 88.8788Z" fill="white"/>
<path fill-rule="evenodd" clip-rule="evenodd" d="M51.4146 73.9914C41.3615 66.3269 28.8038 61.9497 15.9766 61.883V45.2786C20.864 45.0786 25.6963 45.5917 30.3373 46.7396C30.2445 46.786 30.1489 46.8324 30.0561 46.8759C28.8096 47.1629 27.279 47.7281 27.0181 49.1427C26.9486 49.5167 26.9863 49.8935 27.1138 50.2472C27.4791 51.2821 28.1342 52.1053 28.9893 52.7373C29.0299 53.6852 29.3807 54.5374 30.0619 55.2187C30.1112 55.3926 30.1865 55.5607 30.2909 55.7173C30.7199 56.3666 31.404 56.5695 32.1201 56.5753C32.0476 57.0536 32.123 57.5348 32.4534 57.9609C33.1259 58.8219 34.2275 58.7059 35.1522 58.4305C36.3581 58.2972 37.5872 58.416 38.5989 59.1292C40.228 60.6191 42.1615 61.483 44.2893 61.0859C45.5474 61.8888 47.5678 61.8251 49.1042 61.6598C49.7767 62.2976 50.8754 62.5179 51.7769 62.6222C53.6292 63.231 55.3714 64.0629 56.9687 65.15C56.0411 65.466 55.0555 65.5413 54.0206 65.4399C53.406 65.1819 52.7248 65.1703 52.0755 65.3645C50.3971 65.866 50.0434 67.4633 50.3739 68.9909C50.4493 69.3388 50.5536 69.6808 50.6725 70.0171C50.6232 70.9331 50.858 71.8028 51.403 72.5159C51.287 72.9971 51.2812 73.4986 51.4146 73.9914ZM64.552 88.1666C63.4968 86.5258 62.3576 84.946 61.1401 83.4357C62.6156 83.1806 63.8997 83.5777 65.0651 84.3923C64.9665 84.5894 64.8998 84.801 64.8737 85.0272C64.7404 86.0475 64.6302 87.0998 64.552 88.1666Z" fill="white"/>
<path fill-rule="evenodd" clip-rule="evenodd" d="M34.0062 44.4017C28.0462 43.0219 21.9326 42.2798 15.9727 42.2015V27.3364C25.5098 26.4842 36.0411 28.7452 44.6361 33.6239C44.239 33.9399 43.8505 34.2588 43.4679 34.5864C42.3432 35.3343 41.1025 36.2068 40.1633 37.1692C39.398 37.9519 38.6704 39.0215 39.0878 40.1637C39.1139 40.2361 39.1429 40.3028 39.1748 40.3695C38.8008 40.7811 38.2153 41.2855 37.9833 41.4826C36.734 42.5233 35.3599 43.4857 34.0062 44.4017Z" fill="#23A4DB"/>
<path fill-rule="evenodd" clip-rule="evenodd" d="M65.9144 100.174C53.9539 85.1118 35.2885 75.9052 15.9766 75.1602V65.3477C36.0219 64.4723 55.3454 75.4153 64.4708 93.0401C64.5723 95.0519 64.8593 97.0376 65.4303 98.887C65.4419 98.9276 65.4564 98.9711 65.4738 99.0117L65.9144 100.174Z" fill="#23A4DB"/>
<path fill-rule="evenodd" clip-rule="evenodd" d="M97.8679 2.87204C98.6419 2.87204 99.2245 3.14743 99.6072 3.6895C99.9898 4.23448 100.175 4.96498 100.17 5.87231C100.152 7.84351 100.129 9.8147 100.109 11.7859C100.085 13.7542 100.077 15.7254 100.054 17.6966C100.048 18.1749 99.9956 18.6068 99.9115 18.9923C99.8275 19.3721 99.6796 19.691 99.4564 19.9432C99.2332 20.1954 98.9462 20.3664 98.581 20.4678C98.2128 20.5693 97.7606 20.5693 97.2243 20.4881C96.1025 20.3171 94.9865 20.1954 93.8704 20.1055C93.853 22.1868 93.824 24.2682 93.8066 26.3495C92.5138 26.28 91.2122 26.2916 89.928 26.393C89.9541 22.4738 90.0005 18.5575 90.0353 14.6354C90.0701 10.7162 90.1078 6.79703 90.1512 2.86914C92.7196 2.87204 95.2908 2.87204 97.8679 2.87204ZM94.0067 6.98836C93.9893 8.52473 93.9719 10.064 93.9545 11.6004C93.9371 13.1367 93.9284 14.6789 93.9197 16.2182C94.5603 16.253 95.2126 16.2993 95.8648 16.3602C96.0242 16.3747 96.1344 16.3486 96.1779 16.282C96.2243 16.2095 96.2387 16.0819 96.2387 15.908C96.2561 14.5108 96.2706 13.1078 96.2822 11.7047C96.2967 10.3075 96.3141 8.90447 96.3286 7.50434C96.3315 7.19417 96.2214 7.03764 95.9894 7.03184C95.3256 7.01155 94.6676 6.99705 94.0067 6.98836ZM88.3424 23.2768C88.3395 23.7348 88.2815 24.1725 88.1829 24.5986C88.0873 25.0132 87.9336 25.4016 87.7191 25.7582C87.5046 26.1147 87.2089 26.4307 86.8553 26.7061C86.4871 26.996 86.0407 27.2076 85.4899 27.3786C83.9797 27.8453 82.481 28.4367 80.9417 28.8541C80.4228 28.9933 79.9474 28.7961 79.5938 28.5555C79.2227 28.3033 78.9531 27.9816 78.7386 27.6163C78.5183 27.2453 78.3676 26.8278 78.2835 26.3727C78.1994 25.9147 78.1559 25.4422 78.1588 24.9436C78.1878 21.8274 78.211 18.6967 78.24 15.5775C78.2661 12.4584 78.2922 9.3335 78.3125 6.21147C78.3183 5.19399 78.5444 4.38522 78.9734 3.78227C79.4024 3.17931 80.0808 2.87494 80.9968 2.87494C82.6201 2.87494 84.2435 2.87494 85.8755 2.87494C86.7944 2.87494 87.4611 3.15612 87.8815 3.71559C88.2989 4.26927 88.5047 5.01716 88.496 5.95638C88.4699 8.84359 88.4409 11.7337 88.4148 14.618C88.3859 17.5024 88.3656 20.3896 88.3424 23.2768ZM82.6056 7.33621C82.365 7.35071 82.252 7.52464 82.2491 7.8551C82.2259 10.4582 82.1998 13.0643 82.1766 15.6645C82.1534 18.2676 82.1389 20.8708 82.1157 23.4739C82.1128 23.6623 82.1418 23.7899 82.1882 23.8595C82.2346 23.9348 82.3389 23.9464 82.4984 23.9029C82.9883 23.7638 83.4869 23.6246 83.9884 23.4884C84.1478 23.4449 84.2551 23.3754 84.2985 23.2826C84.3449 23.1898 84.3623 23.0536 84.3623 22.871C84.3768 20.3461 84.4116 17.8154 84.4348 15.2935C84.4551 12.7686 84.4725 10.2379 84.4957 7.71016C84.4986 7.38839 84.3797 7.23476 84.1478 7.24925C83.6318 7.27534 83.1158 7.30722 82.6056 7.33621ZM76.5152 28.2164C75.3006 27.8917 74.1063 27.5525 72.9033 27.2018C72.912 25.5089 72.9294 23.8131 72.9381 22.1202C72.9468 20.4244 72.9555 18.7315 72.9816 17.0356C72.5989 18.6619 72.2337 20.2736 71.8771 21.8709C71.5206 23.4536 71.1553 25.0219 70.7988 26.5756C69.4595 26.1756 68.1231 25.7814 66.7752 25.4016C66.7926 21.6448 66.8332 17.8937 66.8564 14.1397C66.8767 10.3858 66.8998 6.6318 66.9375 2.87784C68.2826 2.87784 69.6305 2.87784 70.9785 2.87784C70.9611 4.46349 70.9466 6.05204 70.935 7.63479C70.9205 9.22044 70.9176 10.8061 70.9002 12.3917C71.2481 10.838 71.593 9.27262 71.9351 7.69566C72.28 6.10711 72.6308 4.49537 72.9874 2.88073C74.228 2.88073 75.4774 2.88073 76.7268 2.88073C76.692 7.10431 76.6515 11.3308 76.6196 15.5543C76.5819 19.7692 76.5413 23.987 76.5152 28.2164ZM65.149 24.9726C63.8213 24.6798 62.4821 24.5581 61.1631 23.6449C61.1718 22.2622 61.1776 20.8737 61.1892 19.4938C61.2037 18.1082 61.2066 16.7255 61.2153 15.3369C60.5022 15.0036 59.7891 14.6818 59.076 14.3716C59.076 15.6529 59.0673 16.9313 59.0586 18.2097C59.0499 19.4851 59.0412 20.7635 59.0325 22.039C57.7106 21.1607 56.3743 20.4215 55.0466 19.8823C55.064 17.0501 55.0814 14.2151 55.0988 11.383C55.1162 8.54792 55.1249 5.71288 55.151 2.87204C56.4902 2.87204 57.8266 2.87204 59.1658 2.87204C59.1484 4.24318 59.1397 5.60852 59.131 6.97386C59.1223 8.3392 59.1136 9.70744 59.1049 11.0728C59.818 11.296 60.5312 11.5192 61.2443 11.7598C61.253 10.2785 61.2617 8.80011 61.2704 7.31882C61.279 5.84042 61.2877 4.35913 61.3051 2.87494C62.6357 2.87494 63.972 2.87494 65.3113 2.87494C65.2765 6.55933 65.2533 10.2437 65.2301 13.9252C65.2098 17.6067 65.178 21.2882 65.149 24.9726ZM49.0055 22.7057C47.6053 24.7929 46.1965 25.3697 44.8225 24.5088C45.2341 22.8826 45.6515 21.2534 46.0806 19.5837C45.466 16.5428 44.8457 13.6266 44.2253 10.8119C43.6224 8.08411 43.002 5.44039 42.3962 2.87204C43.7528 2.87204 45.1066 2.87204 46.4632 2.87204C46.7299 4.66061 47.0227 6.48396 47.3097 8.18556C47.5851 9.8118 47.8807 11.354 48.1648 12.8382C48.4692 10.9974 48.7707 9.24653 49.075 7.55652C49.3678 5.93029 49.6809 4.37942 50.0027 2.87204C51.3593 2.87204 52.716 2.87204 54.0697 2.87204C53.2146 5.67229 52.3275 8.51893 51.5274 11.5424C50.6607 14.821 49.8345 18.5372 49.0055 22.7057ZM35.1549 10.6177C35.3521 10.638 35.5463 10.6583 35.7521 10.6814C36.0913 9.40886 36.4362 8.13049 36.7696 6.82892C37.1058 5.52445 37.4479 4.20549 37.7958 2.86914C39.1437 2.86914 40.4974 2.86914 41.8541 2.86914C41.4454 4.40261 41.0511 5.91289 40.6511 7.40868C40.2568 8.87548 39.8568 10.3191 39.4568 11.7424C39.8307 13.5513 40.225 15.392 40.5989 17.2502C40.9758 19.1257 41.3555 21.0418 41.741 22.9956C40.3061 22.4535 38.877 21.9578 37.4421 21.5201C37.1928 20.1664 36.929 18.8329 36.6855 17.511C36.442 16.2008 36.1782 14.8905 35.9347 13.5919C35.668 13.5513 35.4071 13.5165 35.1491 13.4759C35.1404 14.7166 35.1346 15.9573 35.1317 17.198C35.1259 18.4387 35.123 19.6794 35.123 20.9201C33.7838 20.6476 32.4561 20.3809 31.1256 20.1693C31.1343 18.9807 31.1314 17.7922 31.1343 16.6037C31.1401 15.4152 31.143 14.2267 31.1517 13.0382C30.8821 13.0121 30.6241 12.9889 30.3661 12.9628C30.0994 14.1223 29.8298 15.2761 29.5805 16.4269C29.3312 17.5748 29.0558 18.7199 28.8036 19.8562C27.3687 19.7026 25.9396 19.5866 24.5047 19.4967C24.8873 18.0183 25.2903 16.537 25.6729 15.0645C26.0556 13.5861 26.4585 12.099 26.8498 10.609C26.4672 9.30451 26.0701 8.00874 25.6816 6.71877C25.2932 5.43459 24.9047 4.15331 24.5221 2.87204C25.8671 2.87204 27.2238 2.87204 28.5804 2.87204C28.9022 4.08954 29.2385 5.30994 29.5631 6.53614C29.8878 7.76813 30.2212 9.00593 30.5603 10.2553C30.7574 10.2669 30.9517 10.2814 31.1575 10.293C31.1575 9.05811 31.1633 7.82031 31.1662 6.58252C31.172 5.34763 31.1749 4.10983 31.1836 2.86914C32.5141 2.86914 33.8505 2.86914 35.1897 2.86914C35.181 4.16201 35.1752 5.45488 35.1723 6.74485C35.1665 8.03483 35.1636 9.3277 35.1549 10.6177ZM18.8491 5.95928C18.5824 5.96217 18.3563 5.98826 18.1969 6.04044C18.0345 6.09552 17.9099 6.19118 17.8229 6.33032C17.7331 6.46947 17.6577 6.65209 17.5997 6.884C17.5417 7.11011 17.478 7.40868 17.4142 7.77973C17.1504 9.25813 16.8924 10.7394 16.6373 12.2265C16.3822 13.7136 16.1387 15.2065 15.8865 16.6994C16.8605 16.6501 17.8316 16.6008 18.8027 16.5776C18.8114 14.8094 18.8201 13.0382 18.8201 11.2699C18.8201 9.50452 18.8404 7.73045 18.8491 5.95928ZM11.0078 17.1545C11.3209 17.1255 11.6398 17.0878 11.9702 17.0501C12.3007 15.192 12.6369 13.3397 12.9703 11.5018C13.3008 9.67266 13.637 7.8522 13.9791 6.04044C14.0487 5.66939 14.1269 5.29545 14.2284 4.9215C14.3299 4.55045 14.498 4.21129 14.7183 3.90691C14.9415 3.60544 15.2633 3.35614 15.6807 3.16192C16.0894 2.9706 16.6692 2.86914 17.3939 2.86914C19.1941 2.86914 21.0058 2.86914 22.8176 2.86914C22.8089 5.1563 22.806 7.43767 22.8002 9.72194C22.7944 12.0033 22.7915 14.2847 22.7828 16.566C23.0321 16.5747 23.2814 16.5834 23.5394 16.595C23.5394 17.9894 23.5394 19.3837 23.5307 20.778C22.4871 20.7374 21.4348 20.7258 20.3913 20.7171C20.3913 20.2794 20.3913 19.8388 20.4 19.3982C18.3041 19.4504 16.217 19.5634 14.1385 19.746C14.1298 20.1954 14.1298 20.6447 14.1298 21.094C13.0863 21.2099 12.0427 21.3665 11.0078 21.5143C11.0078 20.0591 11.0078 18.6068 11.0078 17.1545Z" fill="#062446"/>
</svg>
