<svg width="365" height="365" viewBox="0 0 365 365" fill="none" xmlns="http://www.w3.org/2000/svg">
<g opacity="0.1">
<path d="M182.632 51.3909L182.632 116.914M334.98 132.886C307.613 48.6498 217.129 2.54021 132.892 29.9144C48.6554 57.2885 2.55309 147.773 29.92 232.002C57.2868 316.231 147.778 362.341 232.015 334.974C316.244 307.607 362.346 217.116 334.98 132.886Z" stroke="#F9F9F9" stroke-width="5.61218" stroke-miterlimit="10" stroke-linecap="round" stroke-linejoin="round"/>
<path d="M182.441 109.544L113.455 159.663L139.801 240.765L225.08 240.765L251.427 159.663L182.441 109.544ZM135.318 29.1128L182.441 58.5136L229.564 29.1128L183.112 19.9127L135.318 29.1128Z" fill="#F9F9F9"/>
<path d="M60.1289 142.526L118.012 161.16" stroke="#F9F9F9" stroke-width="5.61218" stroke-miterlimit="10" stroke-linecap="round" stroke-linejoin="round"/>
<path d="M22.0527 179.876L64.5756 144.147L51.1765 90.2448L29.4667 129.356L22.0527 179.876Z" fill="#F9F9F9"/>
<path d="M106.527 286.617L144.202 234.733" stroke="#F9F9F9" stroke-width="5.61218" stroke-miterlimit="10" stroke-linecap="round" stroke-linejoin="round"/>
<path d="M130.439 334.184L109.604 282.702L54.1992 278.794L84.4748 311.541L130.439 334.184Z" fill="#F9F9F9"/>
<path d="M260.323 289.939L219.725 233.274" stroke="#F9F9F9" stroke-width="5.61218" stroke-miterlimit="10" stroke-linecap="round" stroke-linejoin="round"/>
<path d="M310.693 278.796L255.288 282.703L234.453 334.186L273.819 312.345L310.693 278.796Z" fill="#F9F9F9"/>
<path d="M310.498 141.029L244.333 161.981" stroke="#F9F9F9" stroke-width="5.61218" stroke-miterlimit="10" stroke-linecap="round" stroke-linejoin="round"/>
<path d="M313.713 90.2463L300.313 144.149L342.836 179.878L335.328 132.653L313.713 90.2463Z" fill="#F9F9F9"/>
</g>
</svg>
