<?xml version="1.0" encoding="utf-8"?><svg viewBox="0 0 502.66 502.66" xmlns="http://www.w3.org/2000/svg" xmlns:xlink="http://www.w3.org/1999/xlink"><style>:root>svg{display:none}:root>svg:target{display:block}</style><svg fill="none" viewBox="0 0 22 22" id="accordion-icon" xmlns="http://www.w3.org/2000/svg"><path d="M1 11h20M11 21V1" stroke="#fff" stroke-linecap="round" stroke-linejoin="round"/></svg><svg fill="none" viewBox="0 0 18 18" id="achievement-icon" xmlns="http://www.w3.org/2000/svg"><path d="M9 15.938A6.937 6.937 0 109 2.063a6.937 6.937 0 000 13.874z" stroke="#fff" stroke-miterlimit="5"/><path d="M11.843 7.964l-2.625-1.88a.374.374 0 00-.436 0l-2.625 1.88a.375.375 0 00-.138.422l1.003 3.042c.05.153.194.257.356.257h3.244a.375.375 0 00.357-.257l1.002-3.042a.376.376 0 00-.138-.422zm-5.233 4.64a.375.375 0 00-.353-.252h-.003l-3.09.02a.375.375 0 00-.312.577 7.288 7.288 0 004.35 3.132.376.376 0 00.447-.487l-1.038-2.99zm8.226-.233l-3.128-.019h-.002a.375.375 0 00-.355.252l-1.041 3.001a.376.376 0 00.444.487 7.279 7.279 0 004.394-3.143.376.376 0 00-.312-.578zm-.091-7.885a.375.375 0 00-.65.114l-.951 2.884a.375.375 0 00.138.423l2.42 1.733a.377.377 0 00.382.033.375.375 0 00.211-.32l.007-.11c.005-.08.01-.16.01-.243 0-1.65-.542-3.211-1.567-4.514zM6.12 2.898l2.662 1.907a.373.373 0 00.437 0l2.662-1.907a.376.376 0 00-.075-.651 7.348 7.348 0 00-5.611 0 .377.377 0 00-.075.651zM4.856 7.484L3.906 4.6a.376.376 0 00-.651-.114A7.234 7.234 0 001.688 9c0 .082.005.163.01.243l.007.11a.376.376 0 00.593.287l2.42-1.733a.376.376 0 00.138-.423z" fill="#fff"/><path d="M6 13.103l1.45-1.853m4.313 1.5L10.5 11.136M9 4.5v1.875M4.125 7.5l2.25.75m7.125-.625l-1.875.625" stroke="#fff" stroke-width=".667" stroke-miterlimit="10"/></svg><svg viewBox="0 0 502.664 502.664" id="icon" xmlns="http://www.w3.org/2000/svg"><path d="M153.821 358.226L0 274.337v-46.463l153.821-83.414v54.574L46.636 250.523l107.185 53.431v54.272zm26.273 29.358L282.103 115.08h32.227L212.084 387.584h-31.99zm168.749-29.358v-54.272l107.164-52.999-107.164-52.59v-53.927l153.821 83.522v46.183l-153.821 84.083z" fill="#010002"/></svg><svg fill="none" viewBox="0 0 40 40" id="info__item-icon-1" xmlns="http://www.w3.org/2000/svg"><path d="M20.02 5.618v7.19m16.719 1.754C33.735 5.318 23.806.258 14.562 3.262 5.318 6.266.258 16.195 3.262 25.438c3.003 9.244 12.933 14.304 22.177 11.3 9.243-3.003 14.303-12.933 11.3-22.176z" stroke="#0B4C8E" stroke-width="1.5" stroke-miterlimit="10" stroke-linecap="round" stroke-linejoin="round"/><path d="M20 12l-7.57 5.5 2.89 8.9h9.36l2.89-8.9L20 12zm-5.17-8.826L20 6.4l5.171-3.226-5.097-1.01-5.245 1.01z" fill="#0B4C8E"/><path d="M6.578 15.62l6.352 2.045" stroke="#0B4C8E" stroke-width="1.5" stroke-miterlimit="10" stroke-linecap="round" stroke-linejoin="round"/><path d="M2.4 19.718l4.666-3.92-1.47-5.916-2.383 4.292-.814 5.544z" fill="#0B4C8E"/><path d="M11.67 31.432l4.134-5.694" stroke="#0B4C8E" stroke-width="1.5" stroke-miterlimit="10" stroke-linecap="round" stroke-linejoin="round"/><path d="M14.293 36.652l-2.286-5.65-6.08-.428 3.322 3.593 5.044 2.485z" fill="#0B4C8E"/><path d="M28.547 31.797l-4.456-6.219" stroke="#0B4C8E" stroke-width="1.5" stroke-miterlimit="10" stroke-linecap="round" stroke-linejoin="round"/><path d="M34.074 30.574l-6.08.428-2.287 5.65 4.32-2.397 4.047-3.681z" fill="#0B4C8E"/><path d="M34.052 15.455l-7.26 2.3" stroke="#0B4C8E" stroke-width="1.5" stroke-miterlimit="10" stroke-linecap="round" stroke-linejoin="round"/><path d="M34.405 9.882l-1.47 5.916 4.666 3.92-.824-5.182-2.372-4.654z" fill="#0B4C8E"/></svg><svg fill="none" viewBox="0 0 40 40" id="info__item-icon-2" xmlns="http://www.w3.org/2000/svg"><g clip-path="url(#ea)"><path d="M27.402 12h-8.8V3.2" stroke="#0B4C8E" stroke-width="1.5" stroke-miterlimit="10" stroke-linecap="round" stroke-linejoin="round"/><path d="M28.2 37.6H1V2.4h17.6l9.6 9.6v25.6z" stroke="#0B4C8E" stroke-width="1.5" stroke-miterlimit="10" stroke-linecap="round" stroke-linejoin="round"/><path d="M6.602 17.6h16v1.6h-16v-1.6zm0 9.6h16v1.6h-16v-1.6zm0-4.8h12.8V24h-12.8v-1.6z" fill="#0B4C8E"/></g><defs><clipPath id="ea"><path fill="#fff" d="M0 0h40v40H0z"/></clipPath></defs></svg><svg fill="none" viewBox="0 0 40 40" id="info__item-icon-3" xmlns="http://www.w3.org/2000/svg"><g clip-path="url(#fa)" stroke="#0B4C8E" stroke-width="1.5" stroke-miterlimit="10" stroke-linejoin="round"><path d="M14.8 35.2H2v-32h25.6v32h-4.8"/><path d="M22.8 30.7v8.5l-4-3.2-4 3.2v-8.487M6.8 8.8h14.4M6.8 13.6h16m-16 9.6h4.8m-4.8-4.8h12"/><path d="M19.778 23.697l.254.346a.395.395 0 00.41.152l.416-.1a1.22 1.22 0 011.497 1.267l-.026.434a.4.4 0 00.219.382l.38.193c.73.37.901 1.347.34 1.947l-.293.314a.404.404 0 00-.076.434l.17.397a1.232 1.232 0 01-.98 1.71l-.421.05a.398.398 0 00-.335.284l-.122.416a1.212 1.212 0 01-1.835.674l-.356-.238a.394.394 0 00-.437 0l-.355.237a1.213 1.213 0 01-1.837-.675l-.123-.414a.398.398 0 00-.334-.284l-.422-.05a1.232 1.232 0 01-.979-1.71l.17-.397a.404.404 0 00-.076-.434l-.295-.315c-.56-.6-.39-1.575.34-1.945l.382-.193a.402.402 0 00.218-.382l-.025-.432a1.223 1.223 0 011.498-1.27l.413.1a.395.395 0 00.41-.152l.255-.346a1.21 1.21 0 011.955 0z"/></g><defs><clipPath id="fa"><path fill="#fff" d="M0 0h40v40H0z"/></clipPath></defs></svg><svg fill="none" viewBox="0 0 45 45" id="info__item-icon-4" xmlns="http://www.w3.org/2000/svg"><path d="M15.37 27.701c-.056-.607-.035-1.031-.035-1.586.277-.145.772-1.064.856-1.841.218-.018.56-.229.66-1.062.055-.447-.16-.7-.291-.779.354-1.058 1.089-4.332-1.36-4.67-.252-.44-.897-.663-1.735-.663-3.21 0-3.76 2.52-3.025 5.333-.13.08-.346.332-.292.779.101.833.444 1.044.661 1.062.084.777.599 1.697.876 1.841 0 .555.02.979-.035 1.586-.664 1.775-5.143 1.276-5.35 4.699v.9h14.4v-.9c-.206-3.423-4.666-2.924-5.33-4.699z" stroke="#0B4C8E" stroke-width="1.5" stroke-miterlimit="10" stroke-linecap="round" stroke-linejoin="round"/><path d="M23.4 19.35h16.2v1.35H23.4v-1.35zm0 3.6H36v1.35H23.4v-1.35zm0 3.6h9.9v1.35h-9.9v-1.35zm0 3.6H36v1.35H23.4v-1.35z" fill="#0B4C8E"/><path stroke="#0B4C8E" stroke-width="1.5" stroke-linejoin="round" d="M2.7 11.7h39.6v27H2.7z"/></svg><svg fill="none" viewBox="0 0 80 80" id="play-button" xmlns="http://www.w3.org/2000/svg"><rect x=".5" y=".5" width="79" height="79" rx="39.5" stroke="#fff"/><path d="M55 40L32.5 52.99V27.01L55 40z" fill="#fff"/></svg><svg fill="none" viewBox="0 0 40 40" id="step-icon" xmlns="http://www.w3.org/2000/svg"><path d="M19.198 25v-4.198H15v-1.615h4.198V15h1.615v4.187H25v1.615h-4.187V25h-1.615z" fill="#0B4C8E"/><rect x=".5" y=".5" width="39" height="39" rx="19.5" stroke="#0B4C8E"/></svg></svg>