<svg width="322" height="322" viewBox="0 0 322 322" fill="none" xmlns="http://www.w3.org/2000/svg">
<path d="M161.161 45.228V103.111M295.744 117.221C271.568 42.8065 191.635 2.07353 117.221 26.2557C42.8068 50.4379 2.08021 130.371 26.256 204.779C50.4317 279.187 130.371 319.92 204.786 295.744C279.193 271.568 319.92 191.628 295.744 117.221Z" stroke="#F9F9F9" stroke-width="5" stroke-miterlimit="10" stroke-linecap="round" stroke-linejoin="round"/>
<path d="M161 96.6002L100.058 140.875L123.333 212.52H198.668L221.942 140.875L161 96.6002ZM119.372 25.5477L161 51.5202L202.628 25.5477L161.593 17.4204L119.372 25.5477Z" fill="#F9F9F9"/>
<path d="M52.9561 125.741L104.09 142.202" stroke="#F9F9F9" stroke-width="5" stroke-miterlimit="10" stroke-linecap="round" stroke-linejoin="round"/>
<path d="M19.3135 158.733L56.878 127.171L45.0413 79.5532L25.863 114.104L19.3135 158.733Z" fill="#F9F9F9"/>
<path d="M93.9402 253.028L127.222 207.194" stroke="#F9F9F9" stroke-width="5" stroke-miterlimit="10" stroke-linecap="round" stroke-linejoin="round"/>
<path d="M115.057 295.049L96.6515 249.57L47.7075 246.118L74.4528 275.046L115.057 295.049Z" fill="#F9F9F9"/>
<path d="M229.798 255.964L193.934 205.906" stroke="#F9F9F9" stroke-width="5" stroke-miterlimit="10" stroke-linecap="round" stroke-linejoin="round"/>
<path d="M274.292 246.118L225.348 249.57L206.943 295.049L241.719 275.755L274.292 246.118Z" fill="#F9F9F9"/>
<path d="M274.119 124.415L215.669 142.923" stroke="#F9F9F9" stroke-width="5" stroke-miterlimit="10" stroke-linecap="round" stroke-linejoin="round"/>
<path d="M276.959 79.5532L265.122 127.171L302.686 158.733L296.053 117.015L276.959 79.5532Z" fill="#F9F9F9"/>
</svg>
