<svg width="80" height="80" viewBox="0 0 80 80" fill="none" xmlns="http://www.w3.org/2000/svg">
<rect width="80" height="80" rx="20" fill="#0B4C8E"/>
<path d="M39.9539 49.3089C38.7549 49.3727 37.5642 49.21 36.4802 48.6703C35.7904 48.3263 35.156 47.8381 34.5607 47.3396C34.0187 46.8844 33.7312 46.2706 33.8421 45.5166C33.8852 45.2159 33.838 44.9007 33.8667 44.5959C33.9119 44.0912 33.7579 43.6895 33.4377 43.2837C32.6267 42.2538 32.1463 41.0529 31.748 39.8107C31.6208 39.4132 31.3847 39.0053 31.087 38.7169C29.6581 37.3224 29.2249 34.8958 30.1015 33.0543C30.2062 32.836 30.2268 32.5455 30.1919 32.3004C30.0133 30.9841 29.7607 29.6761 29.615 28.3557C29.4097 26.4997 29.6211 24.6726 30.2452 22.9114C31.0398 20.6661 32.5385 19.0409 34.7516 18.1551C37.3178 17.1293 39.9703 16.8636 42.6803 17.5248C43.5549 17.737 44.3412 18.1263 45.0146 18.7422C45.2281 18.9379 45.5114 19.0944 45.7885 19.1748C48.5334 19.9699 49.9151 21.9165 50.4242 24.6108C50.9005 27.1198 50.4981 29.571 49.9048 32.0038C49.7857 32.4961 49.8124 32.8998 50.0342 33.3695C50.7794 34.9473 50.2477 37.4913 48.9337 38.651C48.5806 38.9621 48.361 39.2875 48.2419 39.7283C47.8703 41.125 47.2688 42.4103 46.4168 43.5886C46.2032 43.8831 46.1047 44.3569 46.1499 44.7236C46.4044 46.8453 45.1665 47.9288 43.4645 48.6971C42.358 49.1977 41.1816 49.3748 39.9539 49.3089Z" fill="white"/>
<path d="M39.9803 61.9836C33.4518 61.9836 26.9212 61.9898 20.3926 61.9795C18.8528 61.9775 18.8015 62.3009 18.9925 60.4614C19.2121 58.3459 19.9348 56.4981 21.3801 54.9409C22.3922 53.8491 23.6056 53.0149 24.9441 52.3948C26.4572 51.6924 28.0216 51.0992 29.5428 50.4132C30.5652 49.9518 31.5651 49.4327 32.5546 48.9033C32.84 48.7509 33.0042 48.7303 33.2608 48.9569C36.406 51.7377 40.0152 51.8758 43.8215 50.7511C44.9178 50.4277 45.8622 49.8056 46.6834 49.0104C46.9236 48.7777 47.0858 48.6809 47.4594 48.8724C48.8801 49.6037 50.3192 50.3061 51.7892 50.9344C53.6082 51.713 55.4435 52.4381 57.0736 53.5958C59.6953 55.4558 60.9004 58.0472 61.0708 61.1865C61.1119 61.961 61.0955 61.9775 60.2866 61.9795C57.244 61.9878 54.2015 61.9816 51.1589 61.9816C47.4327 61.9836 43.7065 61.9836 39.9803 61.9836Z" fill="white"/>
</svg>
