<svg width="80" height="80" viewBox="0 0 80 80" fill="none" xmlns="http://www.w3.org/2000/svg">
<rect width="80" height="80" rx="20" fill="#0B4C8E"/>
<path fill-rule="evenodd" clip-rule="evenodd" d="M45.6309 11.4948C45.9294 11.9824 45.7762 12.6196 45.2886 12.9181C41.716 15.1054 41.1388 19.368 41.3269 21.2487C41.3838 21.8176 40.9688 22.3248 40.3999 22.3817C39.831 22.4386 39.3238 22.0236 39.2669 21.4547C39.2667 21.4528 39.2665 21.4509 39.2663 21.449C39.1164 21.6522 38.8921 21.8013 38.6244 21.8515C38.0625 21.9568 37.5216 21.5867 37.4162 21.0248C37.1125 19.405 36.1736 18.4575 35.0806 17.8964C33.9493 17.3157 32.6694 17.1656 31.865 17.2095C31.2941 17.2406 30.8061 16.8031 30.775 16.2322C30.7439 15.6614 31.1814 15.1734 31.7522 15.1422C32.8457 15.0826 34.5056 15.2741 36.026 16.0546C37.3996 16.7597 38.6692 17.9566 39.2536 19.8428C39.4298 17.249 40.5449 13.3949 44.2076 11.1525C44.6951 10.854 45.3324 11.0072 45.6309 11.4948Z" fill="white"/>
<path d="M23.1094 43.918C23.1094 46.6621 21.0702 48.8867 18.5547 48.8867C16.0392 48.8867 14 46.6621 14 43.918C14 41.1738 16.0392 38.9492 18.5547 38.9492C21.0702 38.9492 23.1094 41.1738 23.1094 43.918Z" fill="white"/>
<path d="M67 43.918C67 46.6621 64.9608 48.8867 62.4453 48.8867C59.9298 48.8867 57.8906 46.6621 57.8906 43.918C57.8906 41.1738 59.9298 38.9492 62.4453 38.9492C64.9608 38.9492 67 41.1738 67 43.918Z" fill="white"/>
<path fill-rule="evenodd" clip-rule="evenodd" d="M40.5115 64C56.6599 63.4824 64.727 52.5098 62.7602 41.7441C62.7602 29.4526 53.2033 19.4883 40.5115 19.4883C27.8198 19.4883 19.2791 28.4941 17.6274 41.7441C17.0017 55.9258 27.8197 64 40.5115 64ZM47.4611 53.3937C47.9493 53.0962 48.1039 52.4592 47.8064 51.971C47.5089 51.4828 46.872 51.3283 46.3838 51.6258L46.0845 51.8081C42.5586 53.9567 38.1127 53.8921 34.6507 51.6418C34.1714 51.3302 33.5302 51.4662 33.2186 51.9456C32.9071 52.4249 33.0431 53.0661 33.5224 53.3776C37.6522 56.062 42.9557 56.1391 47.1619 53.576L47.4611 53.3937ZM35.1216 41.6406C35.1216 43.3557 33.7312 44.7461 32.0161 44.7461C30.301 44.7461 28.9106 43.3557 28.9106 41.6406C28.9106 39.9255 30.301 38.5352 32.0161 38.5352C33.7312 38.5352 35.1216 39.9255 35.1216 41.6406ZM48.9927 44.7461C50.7078 44.7461 52.0981 43.3557 52.0981 41.6406C52.0981 39.9255 50.7078 38.5352 48.9927 38.5352C47.2776 38.5352 45.8872 39.9255 45.8872 41.6406C45.8872 43.3557 47.2776 44.7461 48.9927 44.7461Z" fill="white"/>
</svg>
