<svg width="80" height="80" viewBox="0 0 80 80" fill="none" xmlns="http://www.w3.org/2000/svg">
<rect width="80" height="80" rx="20" fill="#0B4C8E"/>
<g clip-path="url(#clip0_512_5831)">
<path d="M64.9567 34.8151C64.5643 41.8827 61.1718 47.2225 56.2415 51.5581C52.4859 54.8604 48.3038 57.685 44.3045 60.7144C43.0786 61.6429 41.843 62.5593 40.5733 63.4269C40.3247 63.595 39.7885 63.6706 39.5789 63.5195C35.4529 60.5876 31.2951 57.6972 27.2715 54.6313C23.3477 51.641 19.8748 48.1802 17.5547 43.7569C15.2028 39.2774 14.1524 34.5567 15.7999 29.6216C19.0584 19.8487 31.4219 16.8072 38.9843 23.8846C39.791 24.6401 40.1443 24.7619 41.012 23.9211C45.2842 19.7805 51.6207 18.8543 57.0068 21.4523C62.21 23.9626 65.4027 29.4412 64.9567 34.8151Z" fill="white"/>
</g>
<defs>
<clipPath id="clip0_512_5831">
<rect width="50" height="43.6026" fill="white" transform="translate(15 20)"/>
</clipPath>
</defs>
</svg>
