<svg width="80" height="80" viewBox="0 0 80 80" fill="none" xmlns="http://www.w3.org/2000/svg">
<rect width="80" height="80" rx="20" fill="#0B4C8E"/>
<g clip-path="url(#clip0_510_5176)">
<path d="M39.9988 64.4971H21V17H58.9977V47.8731V64.4971H51.8731" fill="white"/>
<path d="M51.8657 57.8164V70.4328L45.9286 65.6831L39.9915 70.4328V57.8354M28.1172 25.3105H49.4909H28.1172ZM28.1172 32.4351H51.8657H28.1172ZM28.1172 46.6842H35.2418H28.1172ZM28.1172 39.5597H45.9286H28.1172Z" fill="white"/>
<path d="M51.8657 57.8164V70.4328L45.9286 65.6831L39.9915 70.4328V57.8354M28.1172 25.3105H49.4909M28.1172 32.4351H51.8657M28.1172 46.6842H35.2418M28.1172 39.5597H45.9286" stroke="#0B4C8E" stroke-width="2" stroke-miterlimit="10" stroke-linejoin="round"/>
<path d="M47.3887 47.1251L47.7663 47.6392C47.9064 47.8304 48.1462 47.9183 48.3754 47.8637L48.9917 47.7152C50.1696 47.4314 51.2846 48.3754 51.2134 49.5961L51.1754 50.2409C51.1611 50.4784 51.2882 50.7004 51.4995 50.8073L52.0647 51.0947C53.1489 51.6444 53.4018 53.0931 52.5694 53.9837L52.1336 54.4503C51.9721 54.6225 51.9282 54.8766 52.0208 55.0939L52.2725 55.6829C52.7535 56.8074 52.0244 58.0815 50.8191 58.2228L50.1934 58.2964C49.9594 58.3237 49.7647 58.4888 49.697 58.7168L49.5153 59.3342C49.1698 60.5062 47.8019 61.0085 46.7914 60.3352L46.263 59.9826C46.0659 59.8519 45.8106 59.8519 45.6146 59.9826L45.0874 60.334C44.0757 61.0085 42.7066 60.505 42.3611 59.3318L42.1794 58.7168C42.1117 58.4888 41.917 58.3237 41.6831 58.2964L41.0573 58.2228C39.8521 58.0815 39.1242 56.8074 39.6039 55.6829L39.8556 55.0939C39.9482 54.8754 39.9043 54.6225 39.7428 54.4503L39.3058 53.9825C38.4746 53.0919 38.7276 51.6444 39.8105 51.0958L40.3769 50.8085C40.5871 50.7016 40.7141 50.4796 40.7011 50.2421L40.6631 49.6009C40.5918 48.379 41.708 47.4326 42.8871 47.7164L43.4998 47.8637C43.729 47.9183 43.9689 47.8304 44.109 47.6392L44.4866 47.1251C45.2109 46.1419 46.6667 46.1419 47.3887 47.1251Z" stroke="#0B4C8E" stroke-width="2" stroke-miterlimit="10" stroke-linejoin="round"/>
</g>
<defs>
<clipPath id="clip0_510_5176">
<rect width="59" height="59" fill="white" transform="translate(10 15)"/>
</clipPath>
</defs>
</svg>
