<svg width="80" height="80" viewBox="0 0 80 80" fill="none" xmlns="http://www.w3.org/2000/svg">
<rect width="80" height="80" rx="20" fill="#0B4C8E"/>
<g clip-path="url(#clip0_511_5717)">
<path d="M39.5041 17C52.4776 17.0055 63.0028 27.531 63 40.5014C62.9972 53.4718 52.4638 64 39.4986 63.9972C26.5362 63.9972 15.9945 53.4524 16 40.4959C16.0055 27.5255 26.5418 16.9945 39.5041 17ZM39.5014 51.2506C42.038 51.1401 44.3288 50.3445 46.1442 48.4825C46.7936 47.814 47.6778 46.9686 46.9953 46.021C46.7687 45.7061 45.4672 45.9299 44.7875 46.2172C41.2146 47.7283 37.6887 47.7477 34.1517 46.1509C33.8616 46.021 33.5549 45.8884 33.2565 45.8221C32.7784 45.7199 32.1567 45.7116 31.9992 45.9907C31.7975 46.347 31.8555 46.9382 32.0517 47.3222C32.3556 47.9162 32.8143 48.4687 33.3172 48.9162C35.0636 50.4661 37.1637 51.1429 39.5014 51.2506ZM45.9038 32.7661C44.5471 32.7413 43.4998 33.9264 43.4583 35.537C43.4169 37.12 44.5747 38.5372 45.89 38.5151C47.15 38.493 48.2885 37.12 48.2913 35.6199C48.294 34.0673 47.2246 32.7882 45.9038 32.7661ZM33.1487 38.5123C34.4253 38.5096 35.5334 37.1807 35.5499 35.6365C35.5665 34.0535 34.5386 32.7965 33.204 32.7661C31.8223 32.7357 30.6866 34.0535 30.7143 35.653C30.7364 37.1614 31.8914 38.5151 33.1487 38.5123Z" fill="white"/>
</g>
<defs>
<clipPath id="clip0_511_5717">
<rect width="47" height="47" fill="white" transform="translate(16 17)"/>
</clipPath>
</defs>
</svg>
