<svg width="80" height="80" viewBox="0 0 80 80" fill="none" xmlns="http://www.w3.org/2000/svg">
<rect width="80" height="80" rx="20" fill="#0B4C8E"/>
<path d="M49.0154 48.7964C47.9872 48.6591 46.7582 48.4604 45.5232 48.3539C45.1845 48.3252 44.7424 48.4768 44.4828 48.7021C43.6189 49.458 42.8219 50.2898 41.9925 51.0846C40.8811 52.1499 40.1247 52.154 39.0336 51.1092C38.3989 50.5008 37.6952 49.9456 37.1618 49.2573C36.4013 48.2781 35.4989 48.2002 34.4078 48.4399C33.5256 48.6345 32.6171 48.7308 31.7167 48.8127C30.5019 48.9234 29.8347 48.3723 29.6177 47.1452C29.417 46.0103 29.2689 44.8631 28.9931 43.7487C28.8897 43.3266 28.5713 42.8514 28.2123 42.6219C27.249 42.0094 26.2067 41.5259 25.2048 40.9708C23.988 40.2968 23.7386 39.545 24.3186 38.2851C24.8155 37.2096 25.3813 36.1648 25.8254 35.0688C25.9755 34.7001 25.9633 34.1634 25.8112 33.7926C25.363 32.6966 24.7952 31.6538 24.3004 30.5763C23.7427 29.3635 23.9941 28.5933 25.144 27.9582C26.1742 27.3866 27.243 26.8806 28.2407 26.2579C28.5794 26.0469 28.8897 25.6003 28.985 25.207C29.2588 24.0557 29.4109 22.8757 29.6218 21.71C29.8388 20.5055 30.5303 19.9339 31.7471 20.0589C32.9477 20.1818 34.1361 20.4399 35.3387 20.5423C35.7402 20.5772 36.2573 20.4174 36.5615 20.1572C37.4315 19.4115 38.2143 18.5614 39.0418 17.7645C40.0902 16.7566 40.8933 16.7443 41.9296 17.7337C42.7854 18.5511 43.5905 19.4238 44.4788 20.2002C44.7586 20.444 45.2454 20.5854 45.6185 20.5526C46.7197 20.4542 47.8087 20.2351 48.9059 20.0794C50.439 19.8602 51.1366 20.3989 51.4023 21.9743C51.5037 22.5745 51.7227 23.1727 51.7227 23.7709C51.7248 25.4384 52.5157 26.432 54.0367 26.9851C54.7241 27.2351 55.3569 27.6509 55.9916 28.0299C56.9529 28.6015 57.2267 29.4209 56.7643 30.4513C56.2512 31.5924 55.6428 32.6925 55.1561 33.8458C55.0121 34.1879 55.0081 34.6939 55.15 35.036C55.5759 36.0665 56.1093 37.0518 56.5919 38.0597C57.322 39.5839 57.0867 40.2763 55.5678 41.0998C54.5923 41.6304 53.5946 42.1221 52.6495 42.7018C52.3575 42.8821 52.0918 43.2713 52.0148 43.6114C51.7552 44.7668 51.5869 45.9427 51.3841 47.1104C51.163 48.3948 50.512 48.907 49.0154 48.7964Z" fill="white"/>
<path d="M46.8221 52.3325C48.0186 52.2198 49.0083 52.6685 49.9837 52.607C52.6221 52.439 54.5751 50.5277 55.0212 47.8727C55.1267 47.2397 55.2524 46.6067 55.3396 45.9716C55.4329 45.2915 55.6621 45.3776 56.0575 45.7791C58.6128 48.3808 61.1762 50.9763 63.7517 53.5575C64.1796 53.9877 64.0113 54.1229 63.5529 54.2725C61.8657 54.8236 60.1682 55.35 58.5094 55.9831C58.0916 56.1428 57.6475 56.5997 57.4873 57.0258C56.8707 58.6687 56.3414 60.3465 55.8304 62.0264C55.6256 62.7003 55.4309 62.6266 55.0091 62.1984C52.0725 59.2116 49.1178 56.2453 46.1792 53.2625C46.1772 53.2605 46.1752 53.2584 46.1752 53.2564C45.9298 53.0024 46.0555 52.5722 46.3901 52.4677C46.3901 52.4677 46.7085 52.3427 46.8221 52.3325Z" fill="white"/>
<path d="M34.6129 52.2999C35.0124 52.4084 35.1321 52.9329 34.8401 53.2279C34.838 53.2299 34.838 53.2299 34.836 53.232C31.867 56.2331 28.894 59.2261 25.9352 62.2375C25.5276 62.6534 25.3471 62.6411 25.1646 62.0695C24.6454 60.4266 24.0593 58.8061 23.5706 57.155C23.3678 56.4708 23.0413 56.0938 22.3436 55.8849C20.7071 55.3973 19.1009 54.8053 17.4765 54.2747C16.9796 54.1128 16.8072 53.9776 17.2717 53.5126C19.5754 51.2121 21.8671 48.8972 24.1465 46.57C24.8888 45.812 25.6533 46.0476 25.8318 47.1006C25.919 47.6107 26.0163 48.1187 26.1481 48.6165C26.86 51.296 29.4558 52.9779 32.155 52.5662C32.9175 52.4494 33.6801 52.3203 34.4487 52.2794C34.5034 52.2773 34.5582 52.2855 34.6129 52.2999Z" fill="white"/>
</svg>
