<svg width="80" height="80" viewBox="0 0 80 80" fill="none" xmlns="http://www.w3.org/2000/svg">
<rect width="80" height="80" rx="20" fill="#0B4C8E"/>
<g clip-path="url(#clip0_512_5812)">
<path d="M51.8938 51.3694C50.6109 51.7609 49.2495 51.8285 47.9342 51.5675C47.512 51.4836 47.1174 51.409 46.7228 51.3414C45.9314 51.2086 45.9014 50.9616 46.5036 50.4652C48.2342 49.0436 49.5587 47.3098 50.2809 45.1588C51.197 42.4322 51.1208 39.7732 49.7318 37.1888C49.4156 36.6015 49.1826 36.4594 48.5273 36.7087C45.163 37.9881 41.7802 39.2279 38.3883 40.4327C35.3148 41.5257 32.2274 40.1554 31.0667 37.2377C29.8945 34.2944 31.1613 30.8244 34.0941 29.6429C37.3569 28.3332 40.6888 27.1493 44.0692 26.1915C45.3914 25.8187 46.9559 26.0634 48.3611 26.3081C50.011 26.597 51.6146 27.1726 53.2183 27.6807C53.4652 27.7599 53.786 28.1468 53.786 28.3914C53.7744 33.0034 53.7144 37.6153 53.6752 42.2295C53.6683 43.129 53.6452 44.0309 53.6452 44.9328C53.6475 46.627 53.9659 48.2956 54.4159 49.9269C54.5313 50.3487 54.4251 50.5747 53.9705 50.7215C53.2691 50.9476 52.5653 51.1643 51.8938 51.3694Z" fill="white"/>
<path d="M48.4851 41.6263C48.4344 43.9334 47.6591 45.9655 46.0231 47.5735C44.3179 49.2491 42.5596 50.8757 40.7482 52.4324C38.5585 54.3107 35.5449 54.5018 33.0159 52.9987C31.4307 52.0572 29.8939 51.0295 28.3156 50.0717C27.7619 49.7361 27.1619 49.2863 26.5643 49.2537C25.2744 49.1815 25.219 48.6455 25.2398 47.464C25.3436 41.3769 25.3736 35.2852 25.1983 29.2028C25.159 27.8162 25.5029 27.427 26.645 27.0635C28.8325 26.3667 30.9969 25.8004 33.279 26.5508C33.5259 26.6323 33.7612 26.7558 34.0012 26.8584C33.7682 27.0052 33.549 27.1823 33.3021 27.2942C30.067 28.7623 27.9811 32.1065 28.2326 35.4367C28.5118 39.1723 30.8423 42.0807 34.3381 43.0059C35.9372 43.43 37.5316 43.3298 39.0892 42.7682C41.6828 41.8313 44.274 40.8852 46.8676 39.946C48.2567 39.4426 48.4228 39.5545 48.4851 41.046C48.4921 41.2394 48.4851 41.4328 48.4851 41.6263Z" fill="white"/>
<path d="M22.8947 38.4639C22.8947 41.2557 22.9016 44.0475 22.8924 46.8371C22.8878 48.8762 21.7663 50.1369 19.775 50.2604C18.589 50.3327 17.3937 50.3304 16.2077 50.2651C14.2302 50.1556 13.0234 48.8832 13.0165 46.8767C12.9934 41.2557 12.9957 35.6347 13.0165 30.0114C13.0234 27.8931 14.3156 26.623 16.4015 26.602C17.5529 26.5904 18.7043 26.5717 19.8558 26.609C21.6163 26.6673 22.8739 27.9583 22.8878 29.7388C22.9108 32.6495 22.8947 35.5555 22.8947 38.4639Z" fill="white"/>
<path d="M56.0953 38.3494C56.0953 35.5972 56.0906 32.845 56.0976 30.0904C56.1022 27.8159 57.309 26.6134 59.5934 26.5995C60.6294 26.5925 61.6655 26.5855 62.7015 26.6018C64.5959 26.6344 65.9504 27.8765 65.9643 29.7758C66.0058 35.5529 66.0058 41.33 65.9619 47.1048C65.9481 48.9086 64.7228 50.1204 62.8976 50.2486C61.6747 50.3348 60.4402 50.3278 59.2149 50.2556C57.2213 50.1367 56.1045 48.8759 56.0976 46.8345C56.0906 44.0077 56.0953 41.1786 56.0953 38.3494Z" fill="white"/>
</g>
<defs>
<clipPath id="clip0_512_5812">
<rect width="53" height="28" fill="white" transform="translate(13 26)"/>
</clipPath>
</defs>
</svg>
