<svg width="80" height="80" viewBox="0 0 80 80" fill="none" xmlns="http://www.w3.org/2000/svg">
<rect width="80" height="80" rx="20" fill="#0B4C8E"/>
<path d="M40.0226 22.0229V31.0109M60.9206 33.2019C57.1666 21.6469 44.7546 15.3219 33.1996 19.0769C21.6446 22.8319 15.3206 35.2439 19.0746 46.7979C22.8286 58.3519 35.2416 64.6769 46.7966 60.9229C58.3506 57.1689 64.6746 44.7559 60.9206 33.2019Z" stroke="#F9F9F9" stroke-width="2" stroke-miterlimit="10" stroke-linecap="round" stroke-linejoin="round"/>
<path d="M40.0021 30.0001L30.5391 36.8751L34.1531 48.0001H45.8511L49.4651 36.8751L40.0021 30.0001ZM33.5381 18.9671L40.0021 23.0001L46.4661 18.9671L40.0941 17.7051L33.5381 18.9671Z" fill="#F9F9F9"/>
<path d="M23.2188 34.5254L31.1588 37.0814" stroke="#F9F9F9" stroke-width="2" stroke-miterlimit="10" stroke-linecap="round" stroke-linejoin="round"/>
<path d="M18 39.6485L23.833 34.7475L21.995 27.3535L19.017 32.7185L18 39.6485Z" fill="#F9F9F9"/>
<path d="M29.5859 54.2899L34.7539 47.1729" stroke="#F9F9F9" stroke-width="2" stroke-miterlimit="10" stroke-linecap="round" stroke-linejoin="round"/>
<path d="M32.8642 60.8148L30.0063 53.7528L22.4062 53.2168L26.5592 57.7088L32.8642 60.8148Z" fill="#F9F9F9"/>
<path d="M50.6862 54.7457L45.1172 46.9727" stroke="#F9F9F9" stroke-width="2" stroke-miterlimit="10" stroke-linecap="round" stroke-linejoin="round"/>
<path d="M57.5908 53.2168L49.9908 53.7528L47.1328 60.8148L52.5328 57.8188L57.5908 53.2168Z" fill="#F9F9F9"/>
<path d="M57.5682 34.3193L48.4922 37.1933" stroke="#F9F9F9" stroke-width="2" stroke-miterlimit="10" stroke-linecap="round" stroke-linejoin="round"/>
<path d="M58.0099 27.3535L56.1719 34.7475L62.0049 39.6485L60.9749 33.1705L58.0099 27.3535Z" fill="#F9F9F9"/>
</svg>
