<svg width="80" height="80" viewBox="0 0 80 80" fill="none" xmlns="http://www.w3.org/2000/svg">
<rect width="80" height="80" rx="20" fill="#0B4C8E"/>
<g clip-path="url(#clip0_510_5695)">
<path d="M40.5192 60.4547C34.7539 60.4547 28.9909 60.4571 23.2256 60.4523C21.669 60.4523 21.1043 59.9745 21.3408 58.4573C21.5242 57.2818 21.8838 56.0203 22.5402 55.0455C30.9312 42.5569 50.2882 42.6142 58.5802 55.153C59.2077 56.1015 59.548 57.3248 59.7072 58.4621C59.922 59.9936 59.3718 60.4523 57.8128 60.4523C52.0475 60.4595 46.2821 60.4547 40.5192 60.4547Z" fill="white"/>
<path d="M51.5715 30.9714C51.5667 37.0401 46.658 41.8903 40.5186 41.8903C34.3286 41.8903 29.4465 37.0186 29.461 30.8568C29.4754 24.8143 34.4106 19.9905 40.5741 20C46.6967 20.0096 51.5763 24.8789 51.5715 30.9714Z" fill="white"/>
<path d="M63.8589 34.5741C63.8372 41.4814 56.6818 46.181 50.2432 43.5194C48.7011 42.8815 48.6215 42.3176 49.8498 41.1445C54.0634 37.121 55.3811 32.3162 53.7473 26.7421C53.2574 25.0673 53.7038 24.544 55.4655 24.7997C60.3114 25.5045 63.8734 29.6522 63.8589 34.5741Z" fill="white"/>
<path d="M27.8868 44.2343C27.1893 44.38 26.475 44.3848 25.7655 44.3012C21.2285 43.7731 17.5676 39.8237 17.22 35.4609C16.8025 30.2118 20.4466 25.5599 25.5748 24.8001C27.3341 24.5397 27.783 25.0701 27.2883 26.7474C25.6569 32.2809 26.9528 37.0594 31.1302 41.0637C32.5106 42.3874 32.431 42.9632 30.5776 43.5748C29.704 43.8639 28.7942 44.0431 27.8868 44.2343Z" fill="white"/>
<path d="M14.7269 57.5996C14.0463 57.5996 13.3465 57.6952 12.6901 57.5709C12.1157 57.4634 11.3314 57.2125 11.119 56.8327C10.8415 56.3333 11.0925 55.4827 11.4303 55.012C13.6964 51.8558 16.7468 49.6792 20.4053 48.3413C21.0038 48.1215 21.6192 47.8682 22.2394 47.8228C22.2491 47.8228 22.2563 47.8204 22.266 47.8204C23.2578 47.7631 23.8949 48.9219 23.2964 49.7055C23.294 49.7103 23.2892 49.7151 23.2868 49.7199C22.3094 50.9694 21.151 52.0852 20.2195 53.3635C19.6017 54.2116 19.1625 55.2199 18.8005 56.2138C18.453 57.1624 17.9583 57.688 16.8892 57.6068C16.1724 57.5566 15.4484 57.5996 14.7269 57.5996Z" fill="white"/>
<path d="M66.1945 57.626C66.1535 57.626 66.1173 57.6236 66.0763 57.626C63.8633 57.6499 62.5891 57.3011 61.6696 54.9883C60.8877 53.0172 59.0488 51.4546 57.666 49.7224C57.2847 49.2445 56.4931 48.8001 57.1109 48.1622C57.4367 47.8253 58.2548 47.7106 58.7664 47.8349C63.161 48.9005 66.7327 51.2635 69.4549 54.8258C69.8506 55.3443 70.133 56.2857 69.9206 56.8161C69.7493 57.2437 68.7695 57.4349 68.1131 57.5639C67.5001 57.6858 66.8365 57.626 66.1945 57.626Z" fill="white"/>
</g>
<defs>
<clipPath id="clip0_510_5695">
<rect width="59" height="40.4571" fill="white" transform="translate(11 20)"/>
</clipPath>
</defs>
</svg>
