<svg width="80" height="80" viewBox="0 0 80 80" fill="none" xmlns="http://www.w3.org/2000/svg">
<rect width="80" height="80" rx="20" fill="#0B4C8E"/>
<path d="M37.7937 22L10 33.19L37.7937 44.3585L65.5873 33.19L37.7937 22ZM66.6255 34.9384L64.5902 35.7481V43.5915C63.2193 44.0292 62.216 45.3081 62.216 46.8315C62.216 48.7151 63.7346 50.2418 65.608 50.2418C67.481 50.2418 69 48.7151 69 46.8315C69 45.3081 67.9963 44.0292 66.6254 43.5915L66.6255 34.9384ZM19.1378 39.0518V50.2203L37.7937 58L56.4495 50.2203V39.0518L38.1752 46.4052C37.9306 46.5046 37.6571 46.5046 37.4124 46.4052L19.1378 39.0518Z" fill="white"/>
</svg>
