<svg width="45" height="45" viewBox="0 0 45 45" fill="none" xmlns="http://www.w3.org/2000/svg">
<path d="M15.3693 27.7011C15.3144 27.0936 15.3351 26.6697 15.3351 26.1153C15.6123 25.9704 16.1073 25.0506 16.191 24.2739C16.4088 24.2559 16.7517 24.0453 16.8516 23.2119C16.9056 22.7646 16.6905 22.5126 16.56 22.4334C16.9137 21.375 17.649 18.1008 15.2001 17.7624C14.9481 17.3223 14.3028 17.1 13.4649 17.1C10.2555 17.1 9.70475 19.6191 10.44 22.4334C10.3095 22.5126 10.0944 22.7646 10.1484 23.2119C10.2492 24.0453 10.5921 24.2559 10.809 24.2739C10.8927 25.0506 11.4075 25.9713 11.6847 26.1153C11.6847 26.6697 11.7054 27.0936 11.6505 27.7011C10.9863 29.4759 6.50705 28.9773 6.30005 32.4V33.3H20.7V32.4C20.4939 28.9773 16.0335 29.4759 15.3693 27.7011Z" stroke="#0B4C8E" stroke-width="1.5" stroke-miterlimit="10" stroke-linecap="round" stroke-linejoin="round"/>
<path d="M23.4 19.35H39.6V20.7H23.4V19.35ZM23.4 22.95H36V24.3H23.4V22.95ZM23.4 26.55H33.3V27.9H23.4V26.55ZM23.4 30.15H36V31.5H23.4V30.15Z" fill="#0B4C8E"/>
<rect x="2.69995" y="11.7" width="39.6" height="27" stroke="#0B4C8E" stroke-width="1.5" stroke-linejoin="round"/>
</svg>
