<svg width="764" height="764" viewBox="0 0 764 764" fill="none" xmlns="http://www.w3.org/2000/svg">
<g opacity="0.1">
<path d="M381.969 107.196V244.378M700.931 277.819C643.635 101.457 454.193 4.91978 277.831 62.2316C101.469 119.543 4.94731 308.985 62.2439 485.332C119.54 661.678 308.998 758.216 485.36 700.919C661.706 643.623 758.228 454.165 700.931 277.819Z" stroke="#F9F9F9" stroke-width="11.7499" stroke-miterlimit="10" stroke-linecap="round" stroke-linejoin="round"/>
<path d="M381.569 228.948L237.137 333.88L292.297 503.678H470.841L526.001 333.88L381.569 228.948ZM282.91 60.5532L381.569 122.108L480.228 60.5532L382.973 41.2915L282.91 60.5532Z" fill="#F9F9F9"/>
<path d="M125.491 298.001L246.678 337.013" stroke="#F9F9F9" stroke-width="11.7499" stroke-miterlimit="10" stroke-linecap="round" stroke-linejoin="round"/>
<path d="M45.7725 376.199L134.8 301.396L106.747 188.543L61.2947 270.428L45.7725 376.199Z" fill="#F9F9F9"/>
<path d="M222.632 599.676L301.51 491.05" stroke="#F9F9F9" stroke-width="11.7499" stroke-miterlimit="10" stroke-linecap="round" stroke-linejoin="round"/>
<path d="M272.693 699.266L229.072 591.48L113.074 583.299L176.461 651.859L272.693 699.266Z" fill="#F9F9F9"/>
<path d="M544.625 606.632L459.626 487.994" stroke="#F9F9F9" stroke-width="11.7499" stroke-miterlimit="10" stroke-linecap="round" stroke-linejoin="round"/>
<path d="M650.082 583.302L534.085 591.482L490.464 699.268L572.883 653.541L650.082 583.302Z" fill="#F9F9F9"/>
<path d="M649.674 294.867L511.148 338.732" stroke="#F9F9F9" stroke-width="11.7499" stroke-miterlimit="10" stroke-linecap="round" stroke-linejoin="round"/>
<path d="M656.406 188.546L628.353 301.399L717.381 376.202L701.66 277.329L656.406 188.546Z" fill="#F9F9F9"/>
</g>
</svg>
