<svg width="202" height="202" viewBox="0 0 202 202" fill="none" xmlns="http://www.w3.org/2000/svg">
<path d="M101.067 28.8841V64.9232M184.862 73.7085C169.809 27.3765 120.041 2.01514 73.7089 17.0715C27.3769 32.1279 2.01958 81.8963 17.072 128.224C32.1244 174.552 81.8967 199.914 128.229 184.861C174.557 169.809 199.914 120.036 184.862 73.7085Z" stroke="#F9F9F9" stroke-width="5" stroke-miterlimit="10" stroke-linecap="round" stroke-linejoin="round"/>
<path d="M100.967 60.8695L63.0229 88.4361L77.514 133.044H124.419L138.91 88.4361L100.967 60.8695ZM75.048 16.6305L100.967 32.8016L126.885 16.6305L101.336 11.5703L75.048 16.6305Z" fill="#F9F9F9"/>
<path d="M33.696 79.0132L65.533 89.262" stroke="#F9F9F9" stroke-width="5" stroke-miterlimit="10" stroke-linecap="round" stroke-linejoin="round"/>
<path d="M12.7495 99.555L36.1381 79.9035L28.7682 50.2559L16.8274 71.7679L12.7495 99.555Z" fill="#F9F9F9"/>
<path d="M59.2139 158.265L79.936 129.728" stroke="#F9F9F9" stroke-width="5" stroke-miterlimit="10" stroke-linecap="round" stroke-linejoin="round"/>
<path d="M72.3616 184.428L60.9019 156.112L30.4282 153.962L47.0805 171.974L72.3616 184.428Z" fill="#F9F9F9"/>
<path d="M143.802 160.094L121.472 128.926" stroke="#F9F9F9" stroke-width="5" stroke-miterlimit="10" stroke-linecap="round" stroke-linejoin="round"/>
<path d="M171.505 153.962L141.031 156.112L129.572 184.428L151.224 172.415L171.505 153.962Z" fill="#F9F9F9"/>
<path d="M171.397 78.1875L135.005 89.7114" stroke="#F9F9F9" stroke-width="5" stroke-miterlimit="10" stroke-linecap="round" stroke-linejoin="round"/>
<path d="M173.165 50.2559L165.795 79.9035L189.184 99.555L185.054 73.5802L173.165 50.2559Z" fill="#F9F9F9"/>
</svg>
